<svg width="90" height="62" viewBox="0 0 90 62" fill="none" xmlns="http://www.w3.org/2000/svg">
<circle cx="20.5" cy="13.5" r="12.5" fill="#912DFF"/>
<path d="M89.7675 37.5794L85.2119 30.6092C83.2002 27.5291 79.7825 25.6899 76.0672 25.6899H64.2856V18.91C64.2856 14.7706 60.9194 11.4044 56.7799 11.4044H34.7246C33.4871 4.9409 27.7977 0.0371094 20.9787 0.0371094C13.2572 0.0371094 6.976 6.3191 6.976 14.0398C6.976 18.8945 9.46182 23.1771 13.2253 25.6899H1.42888C0.639238 25.6899 3.8147e-06 26.3291 3.8147e-06 27.1187C3.8147e-06 27.9084 0.639238 28.5476 1.42888 28.5476H15.7144V31.4045H9.99969C9.21086 31.4045 8.57163 32.0438 8.57163 32.8334C8.57163 33.6231 9.21086 34.2615 9.99969 34.2615H15.7144V37.1184H1.42888C0.639238 37.1184 3.8147e-06 37.7576 3.8147e-06 38.5473C3.8147e-06 39.3369 0.639238 39.9762 1.42888 39.9762H15.7144V46.3031C13.1959 47.414 11.4286 49.9268 11.4286 52.8516V54.2617C11.4286 55.0513 12.0686 55.6905 12.8574 55.6905H25.5277C26.3402 59.1859 29.4743 61.8017 33.214 61.8017C36.9546 61.8017 40.0878 59.1859 40.9004 55.6905H68.385C69.1983 59.1859 72.3324 61.8017 76.0713 61.8017C79.8103 61.8017 82.9451 59.1859 83.7577 55.6905H88.5716C89.3612 55.6905 89.9996 55.0513 89.9996 54.2617V38.3609C89.9996 38.083 89.9187 37.8108 89.7675 37.5794ZM9.83293 14.0398C9.83293 7.89429 14.8332 2.89404 20.9787 2.89404C27.125 2.89404 32.1244 7.89429 32.1244 14.0398C32.1244 20.1852 27.125 25.1855 20.9787 25.1855C14.8332 25.1855 9.83293 20.1852 9.83293 14.0398ZM18.5713 39.9762H21.4282C22.2179 39.9762 22.8571 39.3369 22.8571 38.5473C22.8571 37.7576 22.2179 37.1184 21.4282 37.1184H18.5713V34.2615H28.5718C29.3606 34.2615 29.9999 33.6231 29.9999 32.8334C29.9999 32.0438 29.3606 31.4045 28.5718 31.4045H18.5713V28.5476H37.1426C37.9314 28.5476 38.5715 27.9084 38.5715 27.1187C38.5715 26.3291 37.9314 25.6899 37.1426 25.6899H28.732C32.4375 23.2155 34.8955 19.0237 34.9707 14.2613H56.7807C59.3433 14.2613 61.4286 16.3474 61.4286 18.91V45.69H18.5893C18.5836 45.69 18.5779 45.6917 18.5713 45.6917V39.9762ZM61.4286 52.8328H41.0303C40.8055 51.1897 40.0764 49.7085 38.9998 48.547H61.4286V52.8328ZM18.5893 48.547H27.4282C26.3525 49.7085 25.6225 51.1897 25.3985 52.8328H14.2855C14.2953 50.4688 16.2228 48.547 18.5893 48.547ZM33.214 58.9447C30.4356 58.9447 28.1737 56.6837 28.1737 53.9044C28.1737 51.126 30.4356 48.8641 33.214 48.8641C35.9933 48.8641 38.2543 51.126 38.2543 53.9044C38.2543 56.6837 35.9933 58.9447 33.214 58.9447ZM76.0713 58.9447C73.2929 58.9447 71.031 56.6837 71.031 53.9044C71.031 51.126 73.2929 48.8641 76.0713 48.8641C78.8506 48.8641 81.1116 51.126 81.1116 53.9044C81.1116 56.6837 78.8506 58.9447 76.0713 58.9447ZM87.1427 52.8328H83.8877C83.362 48.9851 80.0612 46.0072 76.0713 46.0072C72.0814 46.0072 68.7815 48.9851 68.255 52.8328H64.2856V28.5476H76.0672C78.813 28.5476 81.3381 29.9021 82.8209 32.1713L87.1427 38.786V52.8328Z" fill="black"/>
<path d="M78.4084 53.9044C78.4084 55.1952 77.3621 56.2415 76.0713 56.2415C74.7806 56.2415 73.7343 55.1952 73.7343 53.9044C73.7343 52.6137 74.7806 51.5674 76.0713 51.5674C77.3621 51.5674 78.4084 52.6137 78.4084 53.9044Z" fill="black"/>
<path d="M35.5511 53.9044C35.5511 55.1952 34.5048 56.2415 33.214 56.2415C31.9241 56.2415 30.8778 55.1952 30.8778 53.9044C30.8778 52.6137 31.9241 51.5674 33.214 51.5674C34.5048 51.5674 35.5511 52.6137 35.5511 53.9044Z" fill="black"/>
<path d="M22.8571 14.04V7.78988C22.8571 7.00023 22.2179 6.36182 21.4282 6.36182C20.6394 6.36182 20.0002 7.00023 20.0002 7.78988V13.574L17.0844 17.5738C16.6193 18.2114 16.7591 19.104 17.3967 19.5683C17.6517 19.7547 17.946 19.8438 18.2378 19.8438C18.6784 19.8438 19.1133 19.6402 19.3928 19.256L22.5833 14.8811C22.7607 14.6375 22.8571 14.3432 22.8571 14.04Z" fill="black"/>
<path d="M75.5899 29.9756H72.8572C72.0675 29.9756 71.4283 30.6148 71.4283 31.4045V41.4042C71.4283 42.1938 72.0675 42.833 72.8572 42.833H82.4718C83.3678 42.833 84.1697 42.3695 84.6193 41.5954C85.0688 40.8213 85.0697 39.8944 84.6266 39.1219L81.2907 33.2829C80.1258 31.2442 77.9408 29.9756 75.5899 29.9756ZM74.286 39.9761V32.8333H75.5899C76.9182 32.8333 78.1517 33.5486 78.8097 34.7012L81.8236 39.9761H74.286Z" fill="black"/>
</svg>
