<svg width="64" height="64" viewBox="0 0 64 64" fill="none" xmlns="http://www.w3.org/2000/svg">
<g clip-path="url(#clip0)">
<ellipse cx="38.5" cy="21" rx="19.5" ry="19" fill="#912DFF"/>
<path d="M18.9567 27.7668L18.9544 27.8076C18.7967 30.5694 20.3437 33.1568 22.8967 34.3972L22.9229 34.41C23.823 34.8405 24.5607 35.5503 25.0262 36.433L25.0367 36.4522C26.323 38.9016 28.9837 40.3864 31.82 40.2374L31.8631 40.2351C32.8917 40.1775 33.9128 40.4428 34.7832 40.9944C37.1849 42.4966 40.2336 42.4966 42.6354 40.9944C43.5058 40.4428 44.5269 40.1775 45.5555 40.2351L45.5986 40.2374C48.4302 40.3876 51.0944 38.9016 52.3837 36.4481L52.3901 36.4347C52.8573 35.5498 53.5968 34.8388 54.4997 34.4077L54.5207 34.3972C57.0737 33.1562 58.6213 30.5694 58.4631 27.807L58.4607 27.7686C58.4084 26.7958 58.6783 25.8329 59.2299 25.0294C60.8177 22.7138 60.8177 19.6604 59.2305 17.3442C58.6795 16.5413 58.4084 15.579 58.4607 14.6062L58.4631 14.5655C58.6213 11.803 57.0737 9.21626 54.5184 7.97467L54.4951 7.96303C53.5968 7.53365 52.8608 6.82733 52.3947 5.94704L52.3814 5.92086C51.0944 3.47142 48.4302 1.98721 45.5986 2.13558L45.5549 2.1379C44.5269 2.1955 43.5058 1.9302 42.636 1.37864H42.6348C40.2331 -0.123608 37.1844 -0.123608 34.7826 1.37864C33.9122 1.92962 32.8911 2.19492 31.8625 2.13732L31.8194 2.135C28.9872 1.98489 26.3236 3.47084 25.0372 5.9197L25.0273 5.93774C24.5613 6.82209 23.823 7.53249 22.9218 7.96361L22.8973 7.97525C20.3443 9.21568 18.7967 11.803 18.9549 14.5655L18.9573 14.6039C19.0096 15.5767 18.7397 16.5396 18.1881 17.3425C16.6003 19.6587 16.6003 22.7126 18.1881 25.0282C18.7391 25.8311 19.0096 26.794 18.9567 27.7668ZM20.1494 18.6958C21.0006 17.4565 21.4178 15.9705 21.3363 14.4695L21.334 14.4287C21.2502 12.5983 22.2777 10.8983 23.9364 10.1204L23.9568 10.1105C25.3177 9.45888 26.4318 8.38601 27.1347 7.05133L27.1463 7.02922C28.001 5.4013 29.7912 4.41455 31.6926 4.51578L31.7345 4.51753C33.2559 4.60305 34.7658 4.21091 36.0527 3.39521C37.6777 2.37878 39.7397 2.37878 41.3647 3.39521C42.6517 4.20975 44.1615 4.60247 45.6823 4.51811L45.7242 4.51578C47.6349 4.41571 49.4164 5.4013 50.2688 7.02456L50.2845 7.05424C50.9873 8.38717 52.1003 9.45829 53.4595 10.1093L53.4792 10.1192C55.1642 10.9384 56.187 12.6298 56.084 14.4293L56.0817 14.4718C56.0002 15.9729 56.418 17.4582 57.2692 18.6975C58.2978 20.198 58.2972 22.1762 57.268 23.6761C56.4174 24.9159 56.0002 26.4019 56.0817 27.903L56.084 27.9431C56.187 29.7427 55.1642 31.4346 53.4787 32.2544L53.4612 32.2625C52.0992 32.9153 50.9838 33.9893 50.2804 35.3264L50.2717 35.3438C49.4164 36.9717 47.6291 37.9591 45.7248 37.8572L45.6835 37.8549C44.1621 37.77 42.6517 38.1627 41.3641 38.9778C39.7397 39.9937 37.6777 39.9937 36.0533 38.9778C34.8827 38.236 33.5247 37.8427 32.1389 37.8439C32.0045 37.8439 31.8695 37.8474 31.7345 37.8549L31.6926 37.8567C29.8163 37.9759 28.0411 36.9938 27.1446 35.3409L27.1323 35.3182C26.4307 33.9858 25.3182 32.9153 23.9597 32.2643L23.9376 32.2532C22.2521 31.434 21.2293 29.7421 21.3328 27.9431L21.3351 27.9007C21.416 26.3996 20.9983 24.9136 20.1477 23.6749C19.1196 22.1744 19.1202 20.1963 20.1494 18.6969V18.6958Z" fill="black"/>
<path d="M31.0206 33.5046C31.5786 33.8531 32.3134 33.6827 32.6619 33.1247L46.7773 10.5119C47.0077 10.1506 47.0269 9.6933 46.8268 9.31454C46.6266 8.9352 46.238 8.69316 45.8097 8.67978C45.3815 8.6664 44.9789 8.884 44.7555 9.24996L30.6407 31.8628C30.2922 32.4213 30.4621 33.1561 31.0206 33.5046Z" fill="black"/>
<path d="M32.2855 21.2452C35.187 21.2452 37.548 18.5532 37.548 15.2444C37.548 11.9356 35.187 9.24414 32.2855 9.24414C29.3839 9.24414 27.0235 11.9356 27.0235 15.2444C27.0235 18.5532 29.3839 21.2452 32.2855 21.2452ZM32.2855 11.6273C33.8732 11.6273 35.1649 13.2499 35.1649 15.2444C35.1649 17.2389 33.8732 18.8621 32.2855 18.8621C30.6983 18.8621 29.4066 17.2383 29.4066 15.2444C29.4066 13.2505 30.6983 11.6273 32.2855 11.6273Z" fill="black"/>
<path d="M39.87 27.1296C39.87 30.4384 42.2304 33.1299 45.1319 33.1299C48.0334 33.1299 50.3944 30.4378 50.3944 27.1296C50.3944 23.822 48.034 21.1294 45.1325 21.1294C42.2304 21.1294 39.87 23.8203 39.87 27.1296ZM48.0113 27.1296C48.0113 29.1241 46.7197 30.7468 45.1319 30.7468C43.5447 30.7468 42.2531 29.1241 42.2531 27.1296C42.2531 25.1352 43.5447 23.5125 45.1319 23.5125C46.7197 23.5125 48.0113 25.134 48.0113 27.1296Z" fill="black"/>
<path d="M63.8454 46.916C62.2675 44.1157 58.7685 43.0493 55.8972 44.4933L46.5632 48.9035C45.2745 46.507 42.8023 44.9815 40.0818 44.9047L31.4651 44.6673C30.1008 44.6283 28.762 44.2821 27.5489 43.6561L26.6721 43.2017C22.1828 40.8616 16.8319 40.8675 12.3473 43.2168L12.402 41.2305C12.42 40.5725 11.9016 40.0244 11.2436 40.0064L1.79489 39.7463C1.13686 39.7283 0.589375 40.2467 0.571339 40.9047L0.000578796 61.64C-0.0174575 62.298 0.500939 62.8461 1.15897 62.8641L10.6076 63.1242H10.6408C11.286 63.1236 11.8137 62.6099 11.8318 61.9652L11.8585 60.9732L14.3132 59.6589C15.2767 59.1405 16.4037 59.0172 17.4562 59.3151L32.1138 63.4291C32.1394 63.4366 32.165 63.4425 32.1912 63.4483C33.2507 63.6699 34.3305 63.7811 35.4133 63.7805C37.7057 63.7817 39.9712 63.2877 42.0547 62.3312C42.1059 62.3079 42.1554 62.2812 42.2025 62.2509L63.455 48.5032C63.9851 48.1611 64.1561 47.4647 63.8454 46.916ZM2.41569 60.5142L2.92071 42.162L9.98743 42.3563L9.48183 60.7091L2.41569 60.5142ZM40.9807 60.2017C38.3922 61.37 35.5012 61.6924 32.7189 61.1233L18.1002 57.021C16.4555 56.5555 14.6937 56.7487 13.1886 57.558L11.9342 58.2294L12.2705 46.027C16.2448 43.3832 21.3427 43.1115 25.576 45.3172L26.4528 45.7716C27.9853 46.5628 29.676 46.9998 31.3999 47.0492L40.0166 47.2866C42.437 47.3559 44.4925 49.0792 44.9836 51.4507L32.1487 51.0975C31.4907 51.0795 30.9432 51.5979 30.9252 52.2559C30.9072 52.9139 31.4255 53.462 32.0836 53.48L46.2479 53.8699H46.2816C46.9262 53.8693 47.454 53.3555 47.472 52.7109C47.4865 52.1931 47.4476 51.6747 47.3568 51.165L56.9288 46.6414L56.9567 46.628C58.3147 45.9403 59.9571 46.1701 61.0737 47.204L40.9807 60.2017Z" fill="black"/>
</g>
<defs>
<clipPath id="clip0">
<rect width="64" height="64" fill="white"/>
</clipPath>
</defs>
</svg>
