<svg width="64" height="64" viewBox="0 0 64 64" fill="none" xmlns="http://www.w3.org/2000/svg">
<g clip-path="url(#clip0)">
<rect x="21.2543" y="16.3999" width="17" height="4.65852" transform="rotate(-15 21.2543 16.3999)" fill="#912DFF"/>
<rect x="22" y="16" width="17" height="4.65852" fill="#912DFF"/>
<rect x="13" y="7.50928" width="17" height="4.65852" transform="rotate(-8.48846 13 7.50928)" fill="#912DFF"/>
<rect x="35.0212" y="8" width="15.2834" height="10.3429" transform="rotate(13.3902 35.0212 8)" fill="#912DFF"/>
<rect x="14" y="9" width="17" height="11" fill="#912DFF"/>
<path d="M41.127 7.90836C40.4838 3.4001 36.5596 0 31.9996 0C29.0669 0 26.2818 1.41515 24.5501 3.78686C24.1964 4.27054 24.3022 4.94904 24.7859 5.30275C25.268 5.65518 25.9481 5.55063 26.3012 5.06631C27.6267 3.25264 29.7566 2.16959 31.9992 2.16959C35.4867 2.16959 38.487 4.76853 38.979 8.21439C39.0565 8.7556 39.5208 9.14617 40.0519 9.14617C40.1024 9.14617 40.1545 9.14236 40.2063 9.13537C40.7993 9.05051 41.2115 8.50105 41.127 7.90836Z" fill="black"/>
<path d="M56.794 20.0517L53.5397 14.6279C53.344 14.3009 52.9909 14.1013 52.6095 14.1013H49.491C48.8923 14.1013 48.4064 14.5872 48.4064 15.186C48.4064 15.7847 48.8923 16.2706 49.491 16.2706H51.9956L53.9481 19.5248H10.0506L12.0031 16.2706H13.152C13.7507 16.2706 14.2366 15.7847 14.2366 15.186C14.2366 14.5872 13.7507 14.1013 13.152 14.1013H11.3892C11.0078 14.1013 10.6547 14.3009 10.459 14.6279L7.20474 20.0517C7.00358 20.3873 6.99881 20.8046 7.19108 21.1446C7.38334 21.4847 7.74373 21.6951 8.13493 21.6951H55.8638C56.255 21.6951 56.615 21.4847 56.8076 21.1446C57.0002 20.8046 56.9951 20.3867 56.794 20.0517Z" fill="black"/>
<path d="M51.387 10.0496C51.2351 9.80459 50.9926 9.63076 50.7123 9.56529L35.9249 6.10671C35.6449 6.04093 35.35 6.08987 35.1053 6.24114C34.8613 6.39305 34.6871 6.63553 34.6216 6.91582L33.5065 11.6828C33.3698 12.2659 33.7321 12.8494 34.3156 12.9854C34.8988 13.1221 35.4829 12.7598 35.6189 12.1763L36.4871 8.46603L49.1618 11.4308L47.1701 19.9461C47.0335 20.5293 47.3958 21.1127 47.9792 21.2487C48.0628 21.2681 48.1458 21.2773 48.2278 21.2773C48.7203 21.2773 49.1662 20.9398 49.2822 20.44L51.5211 10.8686C51.5872 10.5886 51.5389 10.2937 51.387 10.0496Z" fill="black"/>
<path d="M32.5732 12.6139L31.5848 4.2543C31.5511 3.9686 31.4053 3.70769 31.179 3.52972C30.9527 3.35176 30.667 3.2704 30.38 3.30409L12.2371 5.44858C11.6425 5.51913 11.2173 6.05811 11.2875 6.65334L12.9353 20.596C13.0007 21.148 13.4688 21.5538 14.0113 21.5538C14.0536 21.5538 14.0971 21.551 14.1403 21.5462C14.7346 21.4757 15.1598 20.9367 15.0899 20.3415L13.5693 7.47516L29.5579 5.58555L30.4185 12.8678C30.489 13.4628 31.0255 13.8854 31.6233 13.8181C32.2179 13.7481 32.6431 13.2088 32.5732 12.6139Z" fill="black"/>
<path d="M41.1521 20.1979L38.999 11.2443C38.9316 10.965 38.7559 10.7231 38.5109 10.5728C38.2658 10.4238 37.9719 10.3771 37.6906 10.4438L20.216 14.6463C19.6335 14.7862 19.275 15.3722 19.4148 15.9547L20.4909 20.4299C20.6307 21.0131 21.2167 21.3718 21.7989 21.2311C22.3814 21.0912 22.7399 20.5052 22.6001 19.9227L21.7773 16.5019L37.1427 12.8072L39.0422 20.7057C39.1614 21.2031 39.6063 21.5368 40.096 21.5368C40.1802 21.5368 40.2654 21.5269 40.3509 21.5063C40.9334 21.3661 41.2919 20.7804 41.1521 20.1979Z" fill="black"/>
<path d="M56.9481 20.5547C56.9182 19.9782 56.4422 19.5256 55.8644 19.5256H8.13557C7.55781 19.5256 7.08176 19.9779 7.05188 20.5547L4.88229 62.8597C4.86703 63.1565 4.97445 63.447 5.17911 63.6624C5.38409 63.8776 5.6682 63.9999 5.96565 63.9999H58.0334C58.3305 63.9999 58.6149 63.8779 58.8209 63.6624C59.0252 63.447 59.1326 63.1568 59.1177 62.8597L56.9481 20.5547ZM7.10718 61.8303L9.16554 21.6949H54.8332L56.8915 61.8303H7.10718Z" fill="black"/>
<path d="M40.1351 23.8643C38.3405 23.8643 36.8809 25.3239 36.8809 27.1185C36.8809 28.9131 38.3405 30.3727 40.1351 30.3727C41.9297 30.3727 43.3893 28.9131 43.3893 27.1185C43.3893 25.3239 41.9297 23.8643 40.1351 23.8643ZM40.1351 28.2034C39.5367 28.2034 39.0505 27.7169 39.0505 27.1188C39.0505 26.5207 39.537 26.0342 40.1351 26.0342C40.7332 26.0342 41.2197 26.5207 41.2197 27.1188C41.2197 27.7169 40.7332 28.2034 40.1351 28.2034Z" fill="black"/>
<path d="M23.864 23.8643C22.0694 23.8643 20.6097 25.3239 20.6097 27.1185C20.6097 28.9131 22.0694 30.3727 23.864 30.3727C25.6586 30.3727 27.1182 28.9131 27.1182 27.1185C27.1182 25.3239 25.6586 23.8643 23.864 23.8643ZM23.864 28.2034C23.2659 28.2034 22.7793 27.7169 22.7793 27.1188C22.7793 26.5207 23.2659 26.0342 23.864 26.0342C24.4621 26.0342 24.9486 26.5207 24.9486 27.1188C24.9486 27.7169 24.4621 28.2034 23.864 28.2034Z" fill="black"/>
<path d="M40.1351 27.1184H40.0515C39.4528 27.1184 38.9669 27.6043 38.9669 28.203C38.9669 28.3511 38.9961 28.4926 39.0505 28.6213V34.169C39.0505 38.0566 35.8874 41.22 31.9995 41.22C28.1116 41.22 24.9486 38.0569 24.9486 34.169V28.2034C24.9486 27.6046 24.4627 27.1187 23.8639 27.1187C23.2652 27.1187 22.7793 27.6046 22.7793 28.2034V34.1693C22.7793 39.2535 26.9154 43.3896 31.9995 43.3896C37.0836 43.3896 41.2197 39.2535 41.2197 34.1693V28.2034C41.2197 27.6046 40.7338 27.1184 40.1351 27.1184Z" fill="black"/>
</g>
<defs>
<clipPath id="clip0">
<rect width="64" height="64" fill="white"/>
</clipPath>
</defs>
</svg>
