<svg width="64" height="64" viewBox="0 0 64 64" fill="none" xmlns="http://www.w3.org/2000/svg">
<g clip-path="url(#clip0)">
<circle cx="16.5" cy="47.5" r="15" fill="#912DFF" stroke="black" stroke-width="3"/>
<path d="M63.352 13.8422L38.4262 0.155152C38.0517 -0.0504151 37.5976 -0.0504151 37.2231 0.155152L27.8281 5.31385C27.6298 5.36609 27.4448 5.4657 27.2915 5.60877L12.2978 13.8422C11.8979 14.0614 11.6494 14.4813 11.6494 14.9379V31.4916C9.12006 32.2826 6.80219 33.6776 4.87494 35.6054C-0.148497 40.6283 -1.42926 48.2895 1.68793 54.6689C1.99066 55.289 2.7392 55.5463 3.35932 55.2431C3.97992 54.9399 4.23676 54.1913 3.93403 53.5712C1.28559 48.1508 2.37397 41.6415 6.64252 37.373C9.31196 34.7035 12.8608 33.2333 16.6357 33.2333C20.4106 33.2333 23.9594 34.7035 26.6289 37.373C29.2978 40.0419 30.768 43.5907 30.768 47.3656C30.768 51.1405 29.2978 54.6894 26.6284 57.3588C22.3598 61.6274 15.8505 62.7158 10.4301 60.0673C9.81001 59.7641 9.06147 60.0214 8.75874 60.6415C8.45551 61.2621 8.71235 62.0107 9.33295 62.3134C11.6567 63.4492 14.1499 64.0009 16.625 64.0009C20.9428 64.0004 25.2031 62.3198 28.3964 59.1264C29.8608 57.662 31.018 55.9726 31.8369 54.1362L37.2231 57.0937C37.4106 57.1967 37.6176 57.248 37.8247 57.248C38.0317 57.248 38.2392 57.1967 38.4262 57.0937L63.352 43.4071C63.7519 43.1874 64.0005 42.7675 64.0005 42.3114V33.6244C64.0005 32.934 63.4409 32.3744 62.7505 32.3744C62.06 32.3744 61.5005 32.934 61.5005 33.6244V41.5717L39.0786 53.8837V29.3622L46.4785 25.2987V31.7401C46.4785 32.1825 46.7119 32.5917 47.0923 32.8163C47.2885 32.932 47.5083 32.9901 47.7285 32.9901C47.9355 32.9901 48.143 32.9389 48.331 32.8354L53.6723 29.8954C54.0717 29.6757 54.3193 29.2563 54.3193 28.8007V20.9931L61.5005 17.0502V23.6249C61.5005 24.3153 62.06 24.8749 62.7505 24.8749C63.4409 24.8749 64.0005 24.3153 64.0005 23.6249V14.9379C64.0005 14.4818 63.7519 14.0614 63.352 13.8422ZM37.8247 2.67664L60.1533 14.9379L53.1098 18.8056L30.7812 6.54432L37.8247 2.67664ZM37.8247 27.1986L15.496 14.9379L22.7978 10.9281L45.1269 23.1889L37.8247 27.1986ZM47.7236 21.7631L25.395 9.50233L28.184 7.97059L50.5132 20.2313L47.7236 21.7631ZM28.3964 35.6054C25.2548 32.4638 21.0781 30.7338 16.6357 30.7338C15.7954 30.7338 14.9653 30.7958 14.1494 30.9174V17.0502L36.5791 29.3666V53.8881L32.686 51.7504C33.0693 50.3393 33.2675 48.8676 33.2675 47.3656C33.2675 42.9233 31.5376 38.7465 28.3964 35.6054ZM51.8198 28.0619L48.9785 29.6259V23.9262L51.8198 22.3661V28.0619Z" fill="black"/>
<path d="M62.75 27.3677C62.4214 27.3677 62.0986 27.5015 61.8662 27.7339C61.6338 27.9663 61.5 28.2886 61.5 28.6177C61.5 28.9463 61.6338 29.2686 61.8662 29.501C62.0986 29.7339 62.4214 29.8672 62.75 29.8672C63.0786 29.8672 63.4014 29.7339 63.6338 29.501C63.8662 29.2686 64 28.9463 64 28.6177C64 28.2886 63.8662 27.9663 63.6338 27.7339C63.4014 27.5015 63.0786 27.3677 62.75 27.3677Z" fill="black"/>
<path d="M12.4321 48.6149C12.752 48.6149 13.0723 48.4928 13.3159 48.2492C13.8042 47.7609 13.8042 46.9694 13.3159 46.4811L12.4502 45.6149H19.8379C21.6299 45.6149 23.0879 47.0729 23.0879 48.8649C23.0879 50.6569 21.6299 52.1149 19.8379 52.1149H15.4605C14.77 52.1149 14.2105 52.6744 14.2105 53.3649C14.2105 54.0548 14.77 54.6144 15.4605 54.6144H19.8379C23.0083 54.6144 25.5879 52.0353 25.5879 48.8649C25.5879 45.6945 23.0083 43.1154 19.8379 43.1154H12.4502L13.3159 42.2491C13.8042 41.7609 13.8042 40.9694 13.3159 40.4811C12.8281 39.9933 12.0366 39.9933 11.5483 40.4811L8.54834 43.4811C8.06055 43.9694 8.06055 44.7609 8.54834 45.2491L11.5483 48.2487C11.7925 48.4928 12.1123 48.6149 12.4321 48.6149Z" fill="black"/>
</g>
<defs>
<clipPath id="clip0">
<rect width="64" height="64" fill="white"/>
</clipPath>
</defs>
</svg>
