<svg width="24" height="24" viewBox="0 0 24 24" fill="none" xmlns="http://www.w3.org/2000/svg">
<g clip-path="url(#clip0)">
<path d="M20.0931 22.9094H3.90684C2.49668 22.9094 1.23382 22.1803 0.528807 20.9591C-0.17621 19.738 -0.176328 18.2797 0.528807 17.0585L8.62204 3.04084C9.32705 1.81971 10.5899 1.09058 12.0001 1.09058C13.4102 1.09058 14.6731 1.81971 15.3781 3.04084L23.4712 17.0585C24.1763 18.2797 24.1763 19.7379 23.4712 20.9591C22.7661 22.1804 21.5032 22.9094 20.0931 22.9094ZM12.0001 2.21159C10.9952 2.21159 10.0953 2.7312 9.59286 3.60135L1.49967 17.619C0.997237 18.4893 0.997315 19.5284 1.49967 20.3986C2.00202 21.2688 2.90198 21.7883 3.90687 21.7883H20.0931C21.098 21.7883 21.9978 21.2687 22.5003 20.3986C23.0027 19.5284 23.0027 18.4892 22.5003 17.619L14.4072 3.60135C13.9048 2.73108 13.005 2.21159 12.0001 2.21159ZM21.784 17.6824L13.9804 4.16602C13.567 3.45002 12.8267 3.02269 12.0001 3.02269C11.1733 3.02269 10.433 3.45014 10.0196 4.16602L2.21598 17.6824C1.80253 18.3984 1.80265 19.2531 2.21598 19.9691C2.62931 20.6849 3.36962 21.1124 4.1964 21.1124H19.8037C20.6305 21.1124 21.3708 20.6849 21.7841 19.9691C22.1974 19.2531 22.1973 18.3982 21.784 17.6824ZM10.5868 8.38381C10.5868 7.60459 11.2207 6.97063 11.9999 6.97063C12.7792 6.97063 13.4131 7.60459 13.4131 8.38381V12.9699C13.4131 13.7492 12.7792 14.3831 11.9999 14.3831C11.2207 14.3831 10.5868 13.7492 10.5868 12.9699V8.38381ZM11.9999 18.5516C11.2014 18.5516 10.5518 17.902 10.5518 17.1035C10.5518 16.305 11.2014 15.6553 11.9999 15.6553C12.7985 15.6553 13.4481 16.305 13.4481 17.1035C13.4481 17.902 12.7985 18.5516 11.9999 18.5516Z" fill="#C4C4C4"/>
</g>
<defs>
<clipPath id="clip0">
<rect width="24" height="24" fill="white"/>
</clipPath>
</defs>
</svg>
