<svg width="34" height="42" viewBox="0 0 34 42" fill="none" xmlns="http://www.w3.org/2000/svg">
<path d="M33.8 36.3055L31.3951 9.22454C31.3436 8.62331 30.8368 8.1681 30.2442 8.1681H25.2969C25.2282 3.65031 21.535 0 17 0C12.465 0 8.77177 3.65031 8.70306 8.1681H3.75582C3.1546 8.1681 2.65644 8.62331 2.6049 9.22454L0.199995 36.3055C0.199995 36.3399 0.191406 36.3742 0.191406 36.4086C0.191406 39.492 3.01717 42 6.4957 42H27.5043C30.9828 42 33.8086 39.492 33.8086 36.4086C33.8086 36.3742 33.8086 36.3399 33.8 36.3055ZM17 2.31902C20.2552 2.31902 22.9092 4.93006 22.9779 8.1681H11.0221C11.0908 4.93006 13.7448 2.31902 17 2.31902ZM27.5043 39.681H6.4957C4.31411 39.681 2.54478 38.238 2.51043 36.4601L4.81226 10.4957H8.69447V14.0172C8.69447 14.6613 9.20981 15.1767 9.85398 15.1767C10.4982 15.1767 11.0135 14.6613 11.0135 14.0172V10.4957H22.9779V14.0172C22.9779 14.6613 23.4932 15.1767 24.1374 15.1767C24.7816 15.1767 25.2969 14.6613 25.2969 14.0172V10.4957H29.1791L31.4896 36.4601C31.4552 38.238 29.6773 39.681 27.5043 39.681Z" fill="#912DFF"/>
</svg>
