<svg width="24" height="24" viewBox="0 0 24 24" fill="none" xmlns="http://www.w3.org/2000/svg">
<path d="M21.6 20.746L20.2258 5.27117C20.1963 4.92761 19.9067 4.66748 19.5681 4.66748H16.7411C16.7018 2.08589 14.5914 0 12 0C9.40858 0 7.29815 2.08589 7.25888 4.66748H4.43189C4.08833 4.66748 3.80367 4.92761 3.77422 5.27117L2.39999 20.746C2.39999 20.7656 2.39508 20.7853 2.39508 20.8049C2.39508 22.5669 4.0098 24 5.99753 24H18.0024C19.9902 24 21.6049 22.5669 21.6049 20.8049C21.6049 20.7853 21.6049 20.7656 21.6 20.746ZM12 1.32515C13.8601 1.32515 15.3767 2.81718 15.4159 4.66748H8.58404C8.6233 2.81718 10.1399 1.32515 12 1.32515ZM18.0024 22.6748H5.99753C4.75091 22.6748 3.73987 21.8503 3.72023 20.8344L5.03557 5.99755H7.25398V8.00982C7.25398 8.37791 7.54846 8.67239 7.91655 8.67239C8.28465 8.67239 8.57913 8.37791 8.57913 8.00982V5.99755H15.4159V8.00982C15.4159 8.37791 15.7104 8.67239 16.0785 8.67239C16.4466 8.67239 16.7411 8.37791 16.7411 8.00982V5.99755H18.9595L20.2797 20.8344C20.2601 21.8503 19.2442 22.6748 18.0024 22.6748Z" fill="black"/>
</svg>
