<svg width="24" height="24" viewBox="0 0 24 24" fill="none" xmlns="http://www.w3.org/2000/svg">
<path d="M21.52 14.3924C21.0978 18.6429 17.6538 22.0592 13.4002 22.4501C8.37199 22.9121 4.08437 19.2152 3.58703 14.4102H2.70087C2.16212 14.4102 1.82541 13.8269 2.09484 13.3604L4.07673 9.92838C4.34612 9.46188 5.01948 9.46192 5.28884 9.92841L7.27036 13.3604C7.53972 13.827 7.203 14.4102 6.66429 14.4102H5.89282C6.394 17.9977 9.73393 20.6883 13.5633 20.127C16.397 19.7117 18.6955 17.4761 19.1771 14.6529C19.8981 10.4274 16.6464 6.7498 12.5522 6.7498C11.2244 6.7498 9.94296 7.13501 8.84215 7.86449C8.33127 8.20302 7.62308 8.13604 7.24828 7.65117C6.8402 7.12322 6.96761 6.36955 7.51178 6.00209C8.69283 5.20423 10.0317 4.70562 11.4345 4.532V3.23111H10.5164C10.2005 3.23111 9.94443 2.97505 9.94443 2.65914V2.08286C9.94443 1.76695 10.2005 1.51089 10.5164 1.51089H14.7741C15.09 1.51089 15.3461 1.76695 15.3461 2.08286V2.65914C15.3461 2.97502 15.09 3.23111 14.7741 3.23111H13.7628V4.54557C18.4539 5.17852 22.0127 9.43127 21.52 14.3924ZM21.8162 5.73619L20.0916 4.14209C19.8596 3.92768 19.4978 3.9419 19.2833 4.17386L18.8271 4.66743C18.6127 4.89939 18.6269 5.26127 18.8589 5.47571L20.5835 7.06978C20.8155 7.28416 21.1773 7.26997 21.3918 7.03801L21.848 6.54444C22.0624 6.31248 22.0482 5.9506 21.8162 5.73619ZM12.5251 7.92567V13.5197H18.0632C18.0633 10.113 15.4786 7.92567 12.5251 7.92567Z" fill="#912DFF"/>
</svg>
