<svg width="14" height="14" viewBox="0 0 14 14" fill="none" xmlns="http://www.w3.org/2000/svg">
<g clip-path="url(#clip0)">
<path d="M12.9214 8.79472C12.7289 8.79472 12.5728 8.9508 12.5728 9.14339V12.2392C12.5721 12.8167 12.1042 13.2847 11.5268 13.2852H1.74336C1.16587 13.2847 0.698026 12.8167 0.697345 12.2392V3.15316C0.698026 2.57581 1.16587 2.10782 1.74336 2.10714H4.83919C5.03178 2.10714 5.18787 1.95106 5.18787 1.75847C5.18787 1.56602 5.03178 1.4098 4.83919 1.4098H1.74336C0.780972 1.41089 0.0010896 2.19077 0 3.15316V12.2394C0.0010896 13.2018 0.780972 13.9816 1.74336 13.9827H11.5268C12.4892 13.9816 13.269 13.2018 13.2701 12.2394V9.14339C13.2701 8.9508 13.114 8.79472 12.9214 8.79472Z" fill="#912DFF"/>
<path d="M13.1322 0.512644C12.5194 -0.100121 11.526 -0.100121 10.9132 0.512644L4.69269 6.73318C4.65006 6.77581 4.61928 6.82866 4.6032 6.88668L3.78518 9.8399C3.75154 9.96099 3.78573 10.0906 3.87453 10.1796C3.96347 10.2684 4.09313 10.3026 4.21422 10.2691L7.16745 9.45092C7.22547 9.43485 7.27831 9.40406 7.32094 9.36143L13.5413 3.14076C14.1532 2.52759 14.1532 1.53496 13.5413 0.921789L13.1322 0.512644ZM5.45241 6.95982L10.5434 1.86865L12.1853 3.51055L7.09417 8.60171L5.45241 6.95982ZM5.12444 7.61794L6.43619 8.92982L4.62173 9.43253L5.12444 7.61794ZM13.0483 2.64772L12.6785 3.0175L11.0365 1.37547L11.4064 1.00569C11.7468 0.665324 12.2987 0.665324 12.639 1.00569L13.0483 1.41483C13.3881 1.75561 13.3881 2.30708 13.0483 2.64772Z" fill="#912DFF"/>
</g>
<defs>
<clipPath id="clip0">
<rect width="14" height="14" fill="white"/>
</clipPath>
</defs>
</svg>
