<svg width="40" height="40" viewBox="0 0 40 40" fill="none" xmlns="http://www.w3.org/2000/svg">
<path fill-rule="evenodd" clip-rule="evenodd" d="M20 40C31.0457 40 40 31.0457 40 20C40 8.95431 31.0457 0 20 0C8.95431 0 0 8.95431 0 20C0 31.0457 8.95431 40 20 40Z" fill="white"/>
<path fill-rule="evenodd" clip-rule="evenodd" d="M14.0062 17.25V17.2528C14.003 17.2528 12.9906 17.25 12.7206 18.1044C12.4732 18.8878 11.7758 21.0507 11.7565 21.1103H11.5637C11.5637 21.1103 10.8502 18.8991 10.5995 18.1015C10.3295 17.2472 9.31397 17.25 9.31397 17.25H7V23.75H9.31397V19.8897H9.41038H9.5068L10.8566 23.75H12.4635L13.8134 19.8926H14.0062V23.75H16.3201V17.25H14.0062Z" fill="#4DB45E"/>
<path fill-rule="evenodd" clip-rule="evenodd" d="M22.4586 17.25C22.4586 17.25 21.7804 17.3039 21.4623 17.9312L19.8232 21.1103H19.6304V17.25H17.3164V23.75H19.5018C19.5018 23.75 20.2121 23.6932 20.5302 23.0688L22.1372 19.8897H22.33V23.75H24.644V17.25H22.4586Z" fill="#4DB45E"/>
<path fill-rule="evenodd" clip-rule="evenodd" d="M25.6724 20.2019V23.7499H27.9863V21.6779H30.4931C31.5858 21.6779 32.5114 21.0619 32.8553 20.2019H25.6724Z" fill="#4DB45E"/>
<path fill-rule="evenodd" clip-rule="evenodd" d="M30.4933 17.25H25.3479C25.605 18.4876 26.6559 19.481 28.0154 19.8046C28.3239 19.8784 28.6485 19.9181 28.9828 19.9181H32.9486C32.984 19.7705 33.0001 19.6201 33.0001 19.464C33.0001 18.2406 31.8784 17.25 30.4933 17.25Z" fill="url(#paint0_linear)"/>
<defs>
<linearGradient id="paint0_linear" x1="25.3485" y1="18.5841" x2="33.0001" y2="18.5841" gradientUnits="userSpaceOnUse">
<stop offset="0.3" stop-color="#00B4E6"/>
<stop offset="1" stop-color="#088CCB"/>
</linearGradient>
</defs>
</svg>
