<svg width="24" height="24" viewBox="0 0 24 24" fill="none" xmlns="http://www.w3.org/2000/svg">
<path fill-rule="evenodd" clip-rule="evenodd" d="M12.0001 1C7.74305 1 4.30005 4.443 4.30005 8.7C4.30005 14.475 12.0001 23 12.0001 23C12.0001 23 19.7001 14.475 19.7001 8.7C19.7001 4.443 16.2571 1 12.0001 1ZM6.49996 8.69999C6.49996 5.66399 8.96396 3.19999 12 3.19999C15.036 3.19999 17.5 5.66399 17.5 8.69999C17.5 11.868 14.332 16.609 12 19.568C9.71196 16.631 6.49996 11.835 6.49996 8.69999ZM9.24996 8.69999C9.24996 7.18121 10.4812 5.94999 12 5.94999C12.9824 5.94999 13.8903 6.47414 14.3815 7.32499C14.8728 8.17585 14.8728 9.22414 14.3815 10.075C13.8903 10.9258 12.9824 11.45 12 11.45C10.4812 11.45 9.24996 10.2188 9.24996 8.69999Z" fill="#912DFF"/>
</svg>
