<svg width="23" height="23" viewBox="0 0 23 23" fill="none" xmlns="http://www.w3.org/2000/svg">
<path fill-rule="evenodd" clip-rule="evenodd" d="M21.72 13.9313C21.8743 13.2364 21.9545 12.5168 21.9545 11.7773C21.9545 6.23781 17.4001 1.74561 11.7796 1.74561C11.1875 1.74561 10.6068 1.79631 10.0398 1.89275C9.13045 1.32767 8.05425 1 6.90154 1C3.64158 1 1 3.60407 1 6.81897C1 7.89225 1.29602 8.89629 1.81029 9.76184C1.67607 10.4122 1.60458 11.0874 1.60458 11.7773C1.60458 17.3193 6.16024 21.8103 11.7796 21.8103C12.4167 21.8103 13.0389 21.7522 13.6435 21.6421C14.4751 22.0823 15.4233 22.3333 16.433 22.3333C19.6918 22.3333 22.3333 19.728 22.3333 16.5156C22.3333 15.587 22.1126 14.7103 21.72 13.9313V13.9313V13.9313Z" stroke="#C4C4C4"/>
<path fill-rule="evenodd" clip-rule="evenodd" d="M16.9993 16.5725C16.5289 17.2303 15.834 17.7496 14.9309 18.1181C14.0391 18.4841 12.9704 18.6708 11.7525 18.6708C10.2912 18.6708 9.06574 18.4173 8.1087 17.9166C7.4251 17.553 6.86191 17.0609 6.43419 16.4501C6.00145 15.8368 5.7832 15.2272 5.7832 14.6374C5.7832 14.2714 5.92619 13.9523 6.20716 13.6914C6.48562 13.4318 6.8431 13.3019 7.26956 13.3019C7.61826 13.3019 7.92055 13.4046 8.16514 13.6086C8.3997 13.8052 8.60039 14.0958 8.76219 14.468C8.94281 14.876 9.13849 15.2197 9.34545 15.4881C9.54614 15.7502 9.83338 15.9691 10.1996 16.1409C10.5684 16.3116 11.0664 16.4006 11.6772 16.4006C12.5189 16.4006 13.2087 16.2225 13.7268 15.8739C14.2348 15.5338 14.4806 15.1233 14.4806 14.6213C14.4806 14.2268 14.3514 13.9152 14.088 13.6704C13.8095 13.4157 13.4445 13.2179 13.0018 13.0794C12.5389 12.9384 11.9118 12.7838 11.1354 12.6231C10.078 12.4005 9.18113 12.1372 8.46868 11.8367C7.73867 11.5313 7.1504 11.1071 6.72017 10.5767C6.28367 10.0363 6.06166 9.35997 6.06166 8.56491C6.06166 7.80817 6.29371 7.12438 6.75279 6.53581C7.20685 5.95094 7.87163 5.49344 8.72833 5.18308C9.57248 4.87519 10.5759 4.71939 11.7136 4.71939C12.6217 4.71939 13.4207 4.82326 14.088 5.02852C14.7591 5.23377 15.3235 5.51075 15.7675 5.85326C16.2153 6.19948 16.549 6.56672 16.7572 6.95004C16.9679 7.33706 17.0758 7.72161 17.0758 8.0938C17.0758 8.45238 16.9353 8.77882 16.6581 9.06198C16.3796 9.34885 16.0272 9.49352 15.6132 9.49352C15.2369 9.49352 14.9409 9.40202 14.7377 9.22396C14.5471 9.05703 14.3489 8.79737 14.1294 8.42642C13.876 7.9516 13.5687 7.57694 13.2163 7.31233C12.8738 7.05514 12.3031 6.92654 11.5167 6.92654C10.7892 6.92654 10.1946 7.06998 9.75435 7.35561C9.3304 7.62888 9.12343 7.94418 9.12343 8.31761C9.12343 8.54512 9.18991 8.73678 9.32789 8.9C9.47088 9.07558 9.67533 9.22643 9.93372 9.35503C10.2009 9.48733 10.4768 9.59367 10.7528 9.66786C11.035 9.74576 11.5091 9.86076 12.1601 10.0091C12.9842 10.1822 13.7406 10.3789 14.4091 10.5903C15.0877 10.803 15.6722 11.0651 16.1513 11.373C16.638 11.6858 17.0231 12.0865 17.2978 12.5662C17.5725 13.0497 17.7117 13.6432 17.7117 14.3344C17.7117 15.1604 17.4709 15.9134 16.9993 16.5725Z" fill="#C4C4C4"/>
</svg>
