<svg width="40" height="40" viewBox="0 0 40 40" fill="none" xmlns="http://www.w3.org/2000/svg">
<path fill-rule="evenodd" clip-rule="evenodd" d="M20 40C31.0457 40 40 31.0457 40 20C40 8.95431 31.0457 0 20 0C8.95431 0 0 8.95431 0 20C0 31.0457 8.95431 40 20 40Z" fill="white"/>
<path fill-rule="evenodd" clip-rule="evenodd" d="M20.4212 19.2283C20.4076 20.3144 21.3814 20.9205 22.115 21.2809C22.8688 21.6507 23.1219 21.8877 23.1191 22.2184C23.1133 22.7245 22.5178 22.9478 21.9604 22.9565C20.988 22.9717 20.4227 22.6918 19.9731 22.4801L19.6229 24.1325C20.0738 24.342 20.9089 24.5247 21.7748 24.5327C23.8074 24.5327 25.1372 23.5213 25.1444 21.953C25.1523 19.9628 22.4135 19.8525 22.4322 18.9629C22.4387 18.6932 22.694 18.4054 23.2536 18.3321C23.5305 18.2952 24.295 18.2669 25.1617 18.6693L25.5019 17.0705C25.0358 16.8994 24.4367 16.7356 23.6909 16.7356C21.7777 16.7356 20.432 17.7608 20.4212 19.2283ZM28.7707 16.8734C28.3996 16.8734 28.0868 17.0917 27.9472 17.4266L25.0437 24.4153H27.0748L27.479 23.2893H29.9611L30.1955 24.4153H31.9857L30.4235 16.8734H28.7707ZM29.0548 18.9106L29.641 21.7427H28.0357L29.0548 18.9106ZM17.9585 16.8734L16.3574 24.4153H18.2929L19.8932 16.8734H17.9585ZM15.0952 16.8734L13.0807 22.0067L12.2658 17.642C12.1701 17.1547 11.7925 16.8734 11.3732 16.8734H8.07984L8.03381 17.0924C8.70989 17.2403 9.47803 17.4788 9.94338 17.734C10.2282 17.8899 10.3095 18.0262 10.403 18.3967L11.9464 24.4153H13.9919L17.1278 16.8734H15.0952Z" fill="url(#paint0_linear)"/>
<mask id="mask0" mask-type="alpha" maskUnits="userSpaceOnUse" x="8" y="16" width="24" height="9">
<path fill-rule="evenodd" clip-rule="evenodd" d="M20.4212 19.2283C20.4076 20.3144 21.3814 20.9205 22.115 21.2809C22.8688 21.6507 23.1219 21.8877 23.1191 22.2184C23.1133 22.7245 22.5178 22.9478 21.9604 22.9565C20.988 22.9717 20.4227 22.6918 19.9731 22.4801L19.6229 24.1325C20.0738 24.342 20.9089 24.5247 21.7748 24.5327C23.8074 24.5327 25.1372 23.5213 25.1444 21.953C25.1523 19.9628 22.4135 19.8525 22.4322 18.9629C22.4387 18.6932 22.694 18.4054 23.2536 18.3321C23.5305 18.2952 24.295 18.2669 25.1617 18.6693L25.5019 17.0705C25.0358 16.8994 24.4367 16.7356 23.6909 16.7356C21.7777 16.7356 20.432 17.7608 20.4212 19.2283ZM28.7707 16.8734C28.3996 16.8734 28.0868 17.0917 27.9472 17.4266L25.0437 24.4153H27.0748L27.479 23.2893H29.9611L30.1955 24.4153H31.9857L30.4235 16.8734H28.7707ZM29.0548 18.9106L29.641 21.7427H28.0357L29.0548 18.9106ZM17.9585 16.8734L16.3574 24.4153H18.2929L19.8932 16.8734H17.9585ZM15.0952 16.8734L13.0807 22.0067L12.2658 17.642C12.1701 17.1547 11.7925 16.8734 11.3732 16.8734H8.07984L8.03381 17.0924C8.70989 17.2403 9.47803 17.4788 9.94338 17.734C10.2282 17.8899 10.3095 18.0262 10.403 18.3967L11.9464 24.4153H13.9919L17.1278 16.8734H15.0952Z" fill="white"/>
</mask>
<g mask="url(#mask0)">
</g>
<defs>
<linearGradient id="paint0_linear" x1="8.07556" y1="19.1338" x2="14.8458" y2="9.59886" gradientUnits="userSpaceOnUse">
<stop stop-color="#222357"/>
<stop offset="1" stop-color="#254AA5"/>
</linearGradient>
</defs>
</svg>
