<svg width="100" height="100" viewBox="0 0 100 100" fill="none" xmlns="http://www.w3.org/2000/svg">
<g clip-path="url(#clip0)">
<path d="M30.4688 72.2661C29.3906 72.2661 28.5156 73.1411 28.5156 74.2192C28.5156 75.2974 29.3906 76.1724 30.4688 76.1724C31.5469 76.1724 32.4219 75.2974 32.4219 74.2192C32.4219 73.1411 31.5469 72.2661 30.4688 72.2661Z" fill="#9C9C9C"/>
<path d="M87.9186 37.1102L99.4282 25.6006C99.9124 25.1164 100.107 24.4141 99.9428 23.7496C99.7782 23.085 99.2774 22.5553 98.6231 22.3533L70.5958 13.7029C68.0692 5.58164 60.5598 0.000976562 51.953 0.000976562C43.9522 0.000976562 36.7968 4.87695 33.8352 12.2324L1.37157 22.3551C0.719034 22.5586 0.220206 23.0887 0.0567296 23.7525C-0.106747 24.4162 0.0885656 25.1174 0.571964 25.6008L12.3843 37.4131L4.93427 49.8301C4.62939 50.3381 4.57177 50.957 4.77724 51.5127C4.98271 52.0684 5.42939 52.5006 5.99149 52.6879L16.7968 56.2895V86.3289C16.7968 87.143 17.3018 87.8717 18.0641 88.1576C24.671 90.635 49.2188 99.8416 49.3507 99.8883C49.7382 100.025 50.1747 100.043 50.6003 99.9057C50.6059 99.9037 50.6118 99.9025 50.6175 99.9006L85.7737 88.1818C86.5712 87.916 87.1093 87.1695 87.1093 86.3289V55.4852L98.6323 51.8641C99.2839 51.6594 99.7811 51.1293 99.9438 50.466C100.106 49.8027 99.9108 49.1027 99.428 48.6197L87.9186 37.1102ZM71.4843 19.5322C71.4843 19.0359 71.4634 18.5408 71.4261 18.0473L94.3741 25.1303L84.6286 34.8756L68.7052 29.5684C70.5083 26.5545 71.4843 23.0768 71.4843 19.5322ZM37.1731 14.4486C39.3413 8.14355 45.2809 3.90723 51.953 3.90723C59.1407 3.90723 65.3747 8.76894 67.1128 15.7299C67.4216 16.9668 67.578 18.2461 67.578 19.5322C67.578 23.16 66.3741 26.5602 64.096 29.3666C61.1122 33.0467 56.6862 35.1572 51.953 35.1572C46.8366 35.1572 42.0376 32.6459 39.1145 28.4377C37.2917 25.8193 36.328 22.7396 36.328 19.5322C36.328 17.7879 36.6122 16.0775 37.1731 14.4486ZM5.61806 25.1227L32.6298 16.7C32.4942 17.6332 32.4218 18.5785 32.4218 19.532C32.4218 22.6768 33.1667 25.7227 34.5866 28.4709L15.3712 34.8756L5.61806 25.1227ZM9.53661 49.752L15.7124 39.4586L47.0723 49.9119L40.8968 60.2053C37.5481 59.0891 13.112 50.9436 9.53661 49.752ZM48.0468 95.2295L20.703 84.9756V57.5916C42.2167 64.7248 41.1661 64.507 41.7651 64.507C42.4366 64.507 43.0796 64.1596 43.4403 63.5586L48.0468 55.8807V95.2295ZM49.9999 46.7703L21.0202 37.1105L36.8003 31.8508C40.4936 36.3912 46.0536 39.0635 51.953 39.0635C57.4104 39.0635 62.5395 36.8176 66.2288 32.8605L78.9796 37.1104L49.9999 46.7703ZM83.203 84.9213L51.953 95.3379V54.3965L58.877 63.0508C59.3807 63.6803 60.2192 63.9353 60.9878 63.6939L83.203 56.7129V84.9213ZM61.0921 59.5668L53.2749 49.7961L84.6286 39.3449L94.3872 49.1035L61.0921 59.5668Z" fill="#9C9C9C"/>
<path d="M42.8729 76.6011L38.5292 74.9722C37.5192 74.5937 36.3934 75.1052 36.0145 76.1152C35.6358 77.1253 36.1475 78.2511 37.1575 78.6298L41.5012 80.2587C42.5133 80.638 43.6378 80.1239 44.0159 79.1157C44.3946 78.1058 43.8829 76.9798 42.8729 76.6011Z" fill="#9C9C9C"/>
<path d="M42.873 84.9449L31.1542 80.5504C30.1443 80.1717 29.0185 80.6834 28.6396 81.6934C28.2607 82.7033 28.7726 83.8293 29.7826 84.208L41.5013 88.6026C41.7273 88.6873 41.9589 88.7276 42.1869 88.7276C42.9777 88.7276 43.7218 88.2438 44.016 87.4596C44.3949 86.4494 43.8832 85.3236 42.873 84.9449Z" fill="#9C9C9C"/>
<path d="M63.0997 12.2911C62.337 11.5282 61.1003 11.5284 60.3374 12.2911L49.9997 22.629L47.4745 20.1038C46.7118 19.3411 45.4751 19.3411 44.7122 20.1038C43.9493 20.8665 43.9495 22.1032 44.7122 22.8661L48.6187 26.7721C49.3814 27.5348 50.6181 27.5348 51.381 26.7721L63.0997 15.0534C63.8624 14.2907 63.8624 13.054 63.0997 12.2911Z" fill="#9C9C9C"/>
</g>
<defs>
<clipPath id="clip0">
<rect width="100" height="100" fill="white"/>
</clipPath>
</defs>
</svg>
