<svg width="100" height="100" viewBox="0 0 100 100" fill="none" xmlns="http://www.w3.org/2000/svg">
<path d="M98.0469 10.5469H69.8189C68.7401 10.5469 67.8658 11.4212 67.8658 12.5C67.8658 13.5788 68.7401 14.4531 69.8189 14.4531H96.0938V96.0938H15.4655C9.09195 96.0938 3.90625 90.9081 3.90625 84.5345C3.90625 79.4716 8.02536 75.3517 13.089 75.3517C17.0624 75.3517 20.2957 78.5767 20.3125 82.5462V82.6065C20.2965 85.6865 17.7864 88.1866 14.7026 88.1866C12.3428 88.1866 10.4225 86.2663 10.4225 83.9066C10.4225 82.151 11.8507 80.7228 13.6063 80.7228C14.6851 80.7228 15.5594 79.8477 15.5594 78.7697C15.5594 77.6909 14.6851 76.8166 13.6063 76.8166C9.69696 76.8166 6.51627 79.9973 6.51627 83.9066C6.51627 88.4209 10.1891 92.0929 14.7026 92.0929C19.6846 92.0929 23.7816 88.2446 24.1844 83.3649C24.2058 83.2481 24.2188 83.1284 24.2188 83.0055V82.6065C24.2188 82.5966 24.2195 82.5867 24.2195 82.5768C24.2195 82.5661 24.2188 82.5562 24.2188 82.5462V14.4531H54.1206C55.1994 14.4531 56.0738 13.5788 56.0738 12.5C56.0738 11.4212 55.1994 10.5469 54.1206 10.5469H24.2035C23.8991 4.67987 19.03 0 13.089 0C5.87158 0 0 5.87158 0 13.089V84.5345C0 93.0626 6.93741 100 15.4655 100H98.0469C99.1257 100 100 99.1249 100 98.0469V12.5C100 11.4212 99.1257 10.5469 98.0469 10.5469ZM7.81174 5.5809V28.2417C7.81174 29.3205 8.68683 30.1949 9.76486 30.1949C10.8437 30.1949 11.718 29.3205 11.718 28.2417V4.00925C12.1658 3.94211 12.6228 3.90625 13.089 3.90625C17.0715 3.90625 20.3125 7.14722 20.3125 11.1305V74.1188C18.367 72.4541 15.844 71.4462 13.089 71.4462C9.51462 71.4462 6.2706 72.8882 3.90625 75.219V13.089C3.90625 9.9884 5.45197 7.24411 7.81174 5.5809Z" fill="#9C9C9C"/>
<path d="M61.9629 14.4531C62.4763 14.4531 62.9807 14.2441 63.3438 13.8809C63.707 13.5178 63.916 13.0135 63.916 12.5C63.916 11.9865 63.707 11.4822 63.3438 11.1191C62.9807 10.7559 62.4763 10.5469 61.9629 10.5469C61.4494 10.5469 60.9451 10.7559 60.582 11.1191C60.2188 11.4822 60.0098 11.9865 60.0098 12.5C60.0098 13.0135 60.2188 13.5178 60.582 13.8809C60.9451 14.2441 61.4494 14.4531 61.9629 14.4531Z" fill="#9C9C9C"/>
<path d="M87.5002 25.9766H31.3867C30.3079 25.9766 29.4336 26.8509 29.4336 27.9297C29.4336 29.0085 30.3079 29.8828 31.3867 29.8828H87.5002C88.579 29.8828 89.4533 29.0085 89.4533 27.9297C89.4533 26.8509 88.579 25.9766 87.5002 25.9766Z" fill="#9C9C9C"/>
<path d="M34.7009 36.9141H31.3867C30.3079 36.9141 29.4336 37.7884 29.4336 38.8672C29.4336 39.946 30.3079 40.8203 31.3867 40.8203H34.7009C35.7797 40.8203 36.6541 39.946 36.6541 38.8672C36.6541 37.7884 35.7797 36.9141 34.7009 36.9141Z" fill="#9C9C9C"/>
<path d="M34.7009 47.8516H31.3867C30.3079 47.8516 29.4336 48.7259 29.4336 49.8047C29.4336 50.8835 30.3079 51.7578 31.3867 51.7578H34.7009C35.7797 51.7578 36.6541 50.8835 36.6541 49.8047C36.6541 48.7259 35.7797 47.8516 34.7009 47.8516Z" fill="#9C9C9C"/>
<path d="M34.7009 58.7891H31.3867C30.3079 58.7891 29.4336 59.6634 29.4336 60.7422C29.4336 61.8202 30.3079 62.6953 31.3867 62.6953H34.7009C35.7797 62.6953 36.6541 61.8202 36.6541 60.7422C36.6541 59.6634 35.7797 58.7891 34.7009 58.7891Z" fill="#9C9C9C"/>
<path d="M34.7009 69.7266H31.3867C30.3079 69.7266 29.4336 70.6009 29.4336 71.6797C29.4336 72.7577 30.3079 73.6328 31.3867 73.6328H34.7009C35.7797 73.6328 36.6541 72.7577 36.6541 71.6797C36.6541 70.6009 35.7797 69.7266 34.7009 69.7266Z" fill="#9C9C9C"/>
<path d="M34.7009 80.6641H31.3867C30.3079 80.6641 29.4336 81.5384 29.4336 82.6172C29.4336 83.6952 30.3079 84.5703 31.3867 84.5703H34.7009C35.7797 84.5703 36.6541 83.6952 36.6541 82.6172C36.6541 81.5384 35.7797 80.6641 34.7009 80.6641Z" fill="#9C9C9C"/>
<path d="M90.0832 43.3418C91.0178 42.8024 91.3375 41.6084 90.7981 40.6738L89.1913 37.8906C88.8427 37.2864 88.1972 36.9141 87.4999 36.9141C86.8026 36.9141 86.1571 37.2864 85.8085 37.8906L84.2017 40.6738C83.6623 41.6077 83.982 42.8024 84.9166 43.3418C85.1172 43.4578 85.3309 43.5318 85.5468 43.5707V65.4121C85.3286 65.4503 85.1127 65.5251 84.909 65.6425C83.9751 66.1819 83.6547 67.3759 84.1941 68.3105L85.8016 71.0938C86.1503 71.698 86.7949 72.0703 87.493 72.0703C88.1904 72.0703 88.8351 71.698 89.1845 71.0938L90.7912 68.3105C91.3306 67.3759 91.0102 66.1819 90.0764 65.6425C89.8772 65.5273 89.6667 65.4541 89.453 65.4144V43.5692C89.6689 43.5303 89.8826 43.4578 90.0832 43.3418Z" fill="#9C9C9C"/>
<path d="M75.5127 79.322C74.5781 78.7834 73.3841 79.1031 72.8447 80.0369C72.7287 80.2383 72.654 80.4512 72.6151 80.6679H50.7744C50.7355 80.4489 50.6607 80.233 50.544 80.0301C50.0046 79.0962 48.8098 78.7758 47.876 79.3152L45.0928 80.9219C44.4885 81.2706 44.1162 81.916 44.1162 82.6134C44.1162 83.3115 44.4885 83.9561 45.0928 84.3048L47.876 85.9123C48.1834 86.0893 48.5191 86.174 48.8503 86.174C49.5255 86.174 50.1816 85.8238 50.544 85.1974C50.6584 84.9983 50.7324 84.7877 50.7713 84.5741H72.6151C72.654 84.79 72.7287 85.0037 72.8447 85.2043C73.2063 85.8314 73.8625 86.1816 74.5377 86.1816C74.8688 86.1816 75.2052 86.0969 75.5127 85.9192L78.2959 84.3124C78.9001 83.9638 79.2725 83.3183 79.2725 82.621C79.2725 81.9229 78.9001 81.2782 78.2959 80.9296L75.5127 79.322Z" fill="#9C9C9C"/>
<path d="M79.2727 38.8672C79.2727 37.7884 78.3976 36.9141 77.3196 36.9141H46.0696C44.9908 36.9141 44.1165 37.7884 44.1165 38.8672V46.9711C44.1165 48.0499 44.9908 48.9243 46.0696 48.9243C47.1476 48.9243 48.0227 48.0499 48.0227 46.9711V40.8203H54.8068V52.0248C54.8068 52.8122 55.2798 53.5225 56.0061 53.8269C56.7332 54.1306 57.5709 53.9688 58.1317 53.4157L61.6946 49.9023L65.2568 53.4157C65.6298 53.7834 66.125 53.978 66.6285 53.978C66.8826 53.978 67.1382 53.9291 67.3823 53.8269C68.1086 53.5233 68.5817 52.813 68.5817 52.0248V40.8203H75.3657V68.1641H48.022V61.8935C48.022 60.8147 47.1476 59.9403 46.0688 59.9403C44.9908 59.9403 44.1157 60.8147 44.1157 61.8935V70.1172C44.1157 71.1952 44.9908 72.0703 46.0688 72.0703H77.3188C78.3976 72.0703 79.272 71.1952 79.272 70.1172V38.8672H79.2727ZM64.6754 47.3557L63.0656 45.7687C62.6857 45.3934 62.1898 45.2065 61.6946 45.2065C61.1987 45.2065 60.7035 45.3934 60.3228 45.7687L58.7138 47.3557V40.8203H64.6754V47.3557Z" fill="#9C9C9C"/>
<path d="M46.0688 56.4453C46.5846 56.4453 47.0866 56.2363 47.4498 55.8731C47.8145 55.5099 48.022 55.0056 48.022 54.4922C48.022 53.9787 47.8145 53.4744 47.4498 53.1113C47.0866 52.7481 46.5838 52.5391 46.0688 52.5391C45.5554 52.5391 45.0511 52.7481 44.6879 53.1113C44.3248 53.4744 44.1157 53.9787 44.1157 54.4922C44.1157 55.0056 44.3248 55.5099 44.6879 55.8731C45.0511 56.2363 45.5554 56.4453 46.0688 56.4453Z" fill="#9C9C9C"/>
<path d="M70.8936 63.8465C71.9724 63.8465 72.8467 62.9722 72.8467 61.8934C72.8467 60.8146 71.9724 59.9403 70.8936 59.9403H65.1372C64.0584 59.9403 63.1841 60.8146 63.1841 61.8934C63.1841 62.9722 64.0584 63.8465 65.1372 63.8465H70.8936Z" fill="#9C9C9C"/>
<path d="M9.76562 38.5155C10.2798 38.5155 10.7834 38.3065 11.1465 37.9433C11.5097 37.5779 11.7188 37.0766 11.7188 36.5624C11.7188 36.0489 11.5097 35.5454 11.1465 35.1799C10.7834 34.8168 10.2798 34.6093 9.76562 34.6093C9.24988 34.6093 8.74786 34.8168 8.3847 35.1799C8.02002 35.5454 7.8125 36.0489 7.8125 36.5624C7.8125 37.0766 8.02002 37.5779 8.3847 37.9433C8.74786 38.3065 9.24988 38.5155 9.76562 38.5155Z" fill="#9C9C9C"/>
</svg>
