<svg width="100" height="100" viewBox="0 0 100 100" fill="none" xmlns="http://www.w3.org/2000/svg">
<g clip-path="url(#clip0)">
<path d="M14.4531 53.83C14.9666 53.83 15.4709 53.6232 15.834 53.26C16.1972 52.8946 16.4062 52.3926 16.4062 51.8768C16.4062 51.3634 16.1972 50.8591 15.834 50.4959C15.4709 50.1328 14.9666 49.9237 14.4531 49.9237C13.9397 49.9237 13.4354 50.1328 13.0722 50.4959C12.709 50.8591 12.5 51.3634 12.5 51.8768C12.5 52.3926 12.709 52.8961 13.0722 53.26C13.4354 53.6232 13.9397 53.83 14.4531 53.83Z" fill="#9C9C9C"/>
<path d="M98.9922 26.8059L81.1417 16.9372C80.1979 16.4146 79.0092 16.7579 78.4874 17.7017C77.9655 18.6455 78.3081 19.8341 79.2519 20.356L96.0938 29.6669V96.093H87.5V34.7648C87.5 33.686 86.6257 32.8117 85.5469 32.8117H14.4531C13.3743 32.8117 12.5 33.686 12.5 34.7648V44.0643C12.5 45.1431 13.3743 46.0174 14.4531 46.0174C15.5319 46.0174 16.4062 45.1431 16.4062 44.0643V36.718H83.5938V96.093H75.4158V76.5617C75.4158 74.4079 73.6633 72.6555 71.5096 72.6555H63.6971V53.1242C63.6971 50.9704 61.9446 49.218 59.7908 49.218H40.2596C38.105 49.218 36.3533 50.9704 36.3533 53.1242V72.6555H28.5156C26.3618 72.6555 24.6094 74.4079 24.6094 76.5617V96.093H16.4062V59.6893C16.4062 58.6105 15.5319 57.7362 14.4531 57.7362C13.3743 57.7362 12.5 58.6105 12.5 59.6893V96.093H3.90625V29.6669L50 4.18394L65.5769 12.796C66.5207 13.3178 67.7094 12.9753 68.2312 12.0315C68.7531 11.0878 68.4105 9.89912 67.4667 9.37727L50.9453 0.243355C50.3571 -0.0824203 49.6429 -0.0824203 49.0547 0.243355L1.00784 26.8059C0.386047 27.1492 0 27.8038 0 28.5148V98.0461C0 99.1249 0.874328 99.9992 1.95312 99.9992H98.0469C99.1257 99.9992 100 99.1249 100 98.0461V28.5148C100 27.8038 99.614 27.1492 98.9922 26.8059ZM59.7908 76.5617H63.6971V80.468H59.7908V76.5617ZM51.9531 53.1242V57.0305H48.0469V53.1242H51.9531ZM40.2596 53.1242H44.1406V58.9836C44.1406 60.0624 45.015 60.9367 46.0938 60.9367H53.9062C54.985 60.9367 55.8594 60.0624 55.8594 58.9836V53.1242H59.7908L59.7931 72.6555C59.7931 72.6555 59.7923 72.6555 59.7908 72.6555H40.2596V53.1242ZM40.2596 76.5617V80.468H36.3533V76.5617H40.2596ZM28.5156 96.093V76.5617H32.4471V82.4211C32.4471 83.4999 33.3214 84.3742 34.4002 84.3742H42.2127C43.2907 84.3742 44.1658 83.4999 44.1658 82.4211V76.5617H48.0469L48.0492 96.093C48.0492 96.093 48.0484 96.093 48.0469 96.093H28.5156ZM51.9783 96.093V76.5617H55.8846V82.4211C55.8846 83.4999 56.7589 84.3742 57.8377 84.3742H65.6502C66.7282 84.3742 67.6033 83.4999 67.6033 82.4211V76.5617H71.5096L71.5118 96.093C71.5118 96.093 71.5111 96.093 71.5096 96.093H51.9783Z" fill="#9C9C9C"/>
<path d="M73.3599 16.8206C73.8733 16.8206 74.3769 16.6115 74.7408 16.2484C75.1039 15.8844 75.313 15.3809 75.313 14.8674C75.313 14.3532 75.1039 13.8497 74.7408 13.4865C74.3769 13.1234 73.8733 12.9143 73.3599 12.9143C72.8456 12.9143 72.3421 13.1234 71.9789 13.4865C71.6158 13.8497 71.4067 14.3532 71.4067 14.8674C71.4067 15.3809 71.6158 15.8844 71.9789 16.2484C72.3421 16.6115 72.8456 16.8206 73.3599 16.8206Z" fill="#9C9C9C"/>
<path d="M41.7969 19.9219C41.7969 24.4453 45.4765 28.125 50 28.125C54.5235 28.125 58.2031 24.4453 58.2031 19.9219C58.2031 15.3984 54.5235 11.7188 50 11.7188C45.4765 11.7188 41.7969 15.3984 41.7969 19.9219ZM54.2969 19.9219C54.2969 22.2908 52.3697 24.2188 50 24.2188C47.6303 24.2188 45.7031 22.2908 45.7031 19.9219C45.7031 17.5522 47.6303 15.625 50 15.625C52.3697 15.625 54.2969 17.5522 54.2969 19.9219Z" fill="#9C9C9C"/>
</g>
<defs>
<clipPath id="clip0">
<rect width="100" height="100" fill="white"/>
</clipPath>
</defs>
</svg>
