<svg width="100" height="100" viewBox="0 0 100 100" fill="none" xmlns="http://www.w3.org/2000/svg">
<g clip-path="url(#clip0)">
<path d="M27.8783 71.4829C27.9279 71.603 27.9882 71.7169 28.0591 71.8223C28.1293 71.9309 28.2117 72.031 28.3018 72.1212C28.3918 72.2114 28.4933 72.294 28.5993 72.3643C28.7069 72.4347 28.8206 72.4958 28.938 72.5447C29.0555 72.5937 29.1791 72.6311 29.3043 72.6563C29.4317 72.6823 29.5591 72.6961 29.6865 72.6961C29.8154 72.6961 29.9428 72.6823 30.0703 72.6563C30.1954 72.6311 30.3174 72.5937 30.4365 72.5447C30.554 72.4958 30.6676 72.4347 30.7737 72.3643C30.8813 72.294 30.9812 72.2114 31.0712 72.1212C31.1613 72.031 31.2437 71.9309 31.3161 71.8223C31.3863 71.7169 31.4474 71.603 31.4962 71.4829C31.545 71.3652 31.5824 71.2421 31.6076 71.116C31.6335 70.9906 31.645 70.8607 31.645 70.7338C31.645 70.6061 31.6335 70.4762 31.6076 70.3485C31.5824 70.2254 31.545 70.1016 31.4962 69.9824C31.4474 69.8639 31.3863 69.75 31.3161 69.6445C31.2452 69.5367 31.1635 69.4366 31.0728 69.3463C30.9812 69.2539 30.8813 69.1736 30.7752 69.101C30.6676 69.0299 30.554 68.9695 30.4365 68.9198C30.319 68.8709 30.1954 68.8342 30.0703 68.8082C29.8177 68.757 29.5568 68.757 29.3043 68.8082C29.1791 68.8342 29.0555 68.8709 28.938 68.9198C28.8206 68.9695 28.7054 69.0299 28.5993 69.101C28.4917 69.1736 28.3918 69.2539 28.3018 69.3463C28.2117 69.4366 28.1293 69.5367 28.0591 69.6445C27.9882 69.75 27.9279 69.8639 27.8783 69.9824C27.8295 70.1016 27.7921 70.2254 27.7669 70.3485C27.7418 70.4762 27.728 70.6061 27.728 70.7338C27.728 70.8607 27.7418 70.9906 27.7669 71.116C27.7921 71.2414 27.8295 71.3652 27.8783 71.4829Z" fill="#9C9C9C"/>
<path d="M97.8462 18.6988H85.8879C86.0771 17.0155 86.1832 15.8115 86.1832 15.2328C86.1832 9.04551 81.3057 4.01172 75.3113 4.01172C69.3161 4.01172 64.4394 9.04551 64.4394 15.2328C64.4394 15.8642 64.566 17.2402 64.7881 19.1712C57.9033 20.8927 52.7878 27.1389 52.7878 34.5623V51.5808C52.7878 54.6233 50.3174 57.0977 47.2817 57.0977H42.8505V42.3182C46.4226 41.5882 49.118 38.4173 49.118 34.6257C49.118 30.2975 45.604 26.7765 41.2834 26.7765H7.63931C3.31955 26.7765 -0.195312 30.2975 -0.195312 34.6257C-0.195312 38.4012 2.47879 41.5622 6.02875 42.3083V80.7256C2.47574 81.4915 -0.195312 84.6616 -0.195312 88.4463C-0.195312 92.8021 3.34091 96.3452 7.68814 96.3452H41.2346C45.5818 96.3452 49.118 92.8021 49.118 88.4463C49.118 84.6456 46.4249 81.464 42.8505 80.7149V61.0231H47.2817C52.4773 61.0231 56.7047 56.7874 56.7047 51.5808V34.5623C56.7047 29.144 60.3272 24.5597 65.2725 23.1065C67.4339 39.8949 73.0805 76.5793 73.3757 78.4919C73.523 79.449 74.3446 80.1553 75.3113 80.1553C76.2779 80.1553 77.0996 79.449 77.2469 78.4919C77.5444 76.5609 83.2985 39.1794 85.4126 22.6234H97.8462C98.9281 22.6234 99.8047 21.7443 99.8047 20.6611C99.8047 19.5771 98.9281 18.6988 97.8462 18.6988ZM38.9336 45.6098L9.94568 50.8248V42.4757H38.9336V45.6098ZM9.94568 54.8128L38.9336 49.5979V57.0977H9.94568V54.8128ZM3.72162 34.6257C3.72162 32.4616 5.47943 30.7011 7.63931 30.7011H41.2834C43.4433 30.7011 45.2011 32.4616 45.2011 34.6257C45.2011 36.7906 43.4433 38.5511 41.2834 38.5511H7.63931C5.47943 38.5511 3.72162 36.7906 3.72162 34.6257ZM45.2011 88.4463C45.2011 90.638 43.4219 92.4206 41.2346 92.4206H7.68814C5.50079 92.4206 3.72162 90.638 3.72162 88.4463C3.72162 86.2555 5.50079 84.4728 7.68814 84.4728H41.2346C43.4219 84.4728 45.2011 86.2555 45.2011 88.4463ZM38.9336 68.8753H37.5214C36.4395 68.8753 35.5629 69.7544 35.5629 70.8376C35.5629 71.9216 36.4395 72.7999 37.5214 72.7999H38.9336V80.5475H9.94568V72.7999H21.8521C22.934 72.7999 23.8106 71.9216 23.8106 70.8376C23.8106 69.7544 22.934 68.8753 21.8521 68.8753H9.94568V61.0231H38.9336V68.8753ZM75.3113 65.1977C73.1972 51.2124 70.4781 32.8408 69.1536 22.6234H73.2124V24.51C73.2124 25.5932 74.0891 26.4723 75.1709 26.4723C76.2528 26.4723 77.1294 25.5932 77.1294 24.51V15.242C77.1294 14.1588 76.2528 13.2797 75.1709 13.2797C74.0891 13.2797 73.2124 14.1588 73.2124 15.242V18.6988H68.6676C68.4685 16.9765 68.3563 15.7695 68.3563 15.2328C68.3563 11.2096 71.4768 7.93631 75.3113 7.93631C79.1458 7.93631 82.2655 11.2096 82.2655 15.2328C82.2655 18.4671 78.2158 45.9768 75.3113 65.1977Z" fill="#9C9C9C"/>
</g>
<defs>
<clipPath id="clip0">
<rect width="100" height="100" fill="white"/>
</clipPath>
</defs>
</svg>
