<svg width="100" height="100" viewBox="0 0 100 100" fill="none" xmlns="http://www.w3.org/2000/svg">
<g clip-path="url(#clip0)">
<path d="M69.3604 76.1397C69.0475 76.2051 68.7387 76.284 68.4348 76.3764C66.5492 73.8725 63.8588 72.1738 60.8816 71.5143L62.9008 67.6088L67.0084 63.5043C70.1506 60.3604 70.1506 55.2447 67.0084 52.1008L62.6199 47.71L84.9436 25.374C84.9627 25.3563 84.9828 25.3402 85.0016 25.3217C85.0205 25.3027 85.0369 25.282 85.0551 25.2625L93.7324 16.5803C93.7326 16.5801 93.7328 16.5799 93.733 16.5799C93.7332 16.5797 93.7332 16.5795 93.7334 16.5793L97.8041 12.5063C100.661 9.65586 100.662 5.00723 97.8061 2.14199C96.4254 0.760547 94.5856 0 92.6242 0C92.6227 0 92.6207 0 92.6192 0C90.6588 0.00136719 88.8211 0.762695 87.4463 2.14199L83.3746 6.21582C83.3746 6.21582 83.3746 6.21582 83.3744 6.21582L83.3742 6.21602L74.6949 14.9C74.676 14.9176 74.6559 14.9336 74.6373 14.952C74.6184 14.9709 74.6022 14.9912 74.5842 15.0107L69.6623 19.9354C68.8998 20.6984 68.9 21.935 69.6629 22.6977C70.4258 23.46 71.6625 23.4598 72.425 22.6969L76.0207 19.0992L80.8565 23.9375L59.8584 44.9471L55.0227 40.1088L60.0309 35.0979C60.7934 34.3348 60.793 33.0982 60.0301 32.3355C59.2668 31.573 58.0303 31.5732 57.2678 32.3363L52.2611 37.3457L47.8742 32.9564C46.3572 31.4387 44.3328 30.6027 42.174 30.6027C40.0152 30.6027 37.991 31.4387 36.473 32.9574L32.3715 37.0666L24.4623 41.1652C24.4539 41.1695 24.4455 41.1738 24.4373 41.1781L16.8191 45.126C16.7855 45.1422 16.7525 45.1592 16.7197 45.1773L4.42773 51.5475C1.78866 52.9137 0.358391 54.5283 0.0546797 56.484C-0.23907 58.3764 0.620891 60.3453 2.61034 62.3357L8.01992 67.75C8.04003 67.7719 8.06152 67.7918 8.08242 67.8127L20.1232 79.8639L32.132 91.8754C32.1619 91.9072 32.1928 91.9383 32.225 91.9684L37.6412 97.3859C39.3777 99.1233 41.0975 99.9998 42.7645 99.9998C43.0078 99.9998 43.25 99.9811 43.4908 99.9438C45.4465 99.6402 47.0609 98.209 48.4264 95.5684L49.3135 93.8535C49.8066 94.2994 50.3361 94.7119 50.9018 95.0846C53.0504 96.5004 55.5107 97.233 58.0234 97.233C58.9043 97.233 59.7922 97.1428 60.6746 96.9605C62.3416 96.6176 63.9176 95.9549 65.3102 95.019C67.6871 96.7406 70.6834 97.4033 73.6172 96.7998C76.376 96.2313 78.7479 94.6223 80.2959 92.269C81.8434 89.9166 82.3828 87.1023 81.8145 84.3451C80.6441 78.6537 75.0608 74.9719 69.3604 76.1397ZM92.6217 3.90625H92.624C93.5414 3.90625 94.4006 4.26035 95.0414 4.90156C96.376 6.24043 96.3778 8.41152 95.0432 9.74316L92.3522 12.4355L87.5164 7.59727L90.2108 4.90137C90.85 4.26035 91.7061 3.90684 92.6217 3.90625ZM78.7824 16.3361L84.7551 10.3602L89.5908 15.1984L83.618 21.1744L78.7824 16.3361ZM48.7121 75.1779L20.9398 47.3906L24.9855 45.2941L52.2531 72.5766C50.9158 73.2436 49.7234 74.1287 48.7121 75.1779ZM33.1689 41.0529L58.9147 66.8129L56.5986 71.293C56.567 71.2965 56.5354 71.3 56.5037 71.3037L28.6238 43.4084L33.1689 41.0529ZM39.2371 35.718C40.0162 34.9385 41.0594 34.5092 42.1744 34.5092C43.2893 34.5092 44.3324 34.9385 45.1117 35.718L64.2455 54.8621C65.866 56.4834 65.866 59.1217 64.2465 60.742L61.3065 63.6799L36.3004 38.6602L39.2371 35.718ZM44.9572 93.774C44.2465 95.1486 43.4938 95.9906 42.8924 96.0838C42.3254 96.1727 41.4191 95.6398 40.4043 94.6244L35.9492 90.1682L40.215 81.9338C40.7113 80.976 40.3371 79.7973 39.3793 79.3012C38.4213 78.8051 37.2428 79.1791 36.7467 80.1369L33.0516 87.2697L24.2703 78.4863L30.4525 72.2826C31.2139 71.5186 31.2117 70.2818 30.4477 69.5205C29.6836 68.7592 28.4469 68.7611 27.6855 69.5254L21.509 75.7234L12.723 66.9299L19.8537 63.2316C20.8113 62.7352 21.185 61.5563 20.6883 60.5986C20.1918 59.6412 19.0125 59.2672 18.0553 59.7641L9.82714 64.0314L5.37421 59.5746C4.35898 58.559 3.82734 57.6508 3.91542 57.0832C4.00898 56.4811 4.85038 55.7277 6.22499 55.0162L17.3018 49.276L46.4262 78.4164C45.167 80.9354 44.7072 83.8768 45.3164 86.8445C45.5836 88.1393 46.0373 89.3643 46.6555 90.4914L44.9572 93.774ZM77.0334 90.1223C76.059 91.6035 74.566 92.6164 72.8303 92.974C70.619 93.4297 68.35 92.741 66.7613 91.1336C66.0313 90.3949 64.8506 90.3566 64.0742 91.0473C62.9008 92.0908 61.4531 92.8129 59.8865 93.1352C57.5084 93.6264 55.0811 93.1604 53.0516 91.8232C51.0217 90.4857 49.6332 88.4373 49.142 86.0574C48.132 81.1371 51.3074 76.3129 56.2205 75.3033C56.2207 75.3033 56.2209 75.3033 56.2213 75.3031C56.8397 75.1758 57.4584 75.1141 58.0707 75.1141C61.3002 75.1141 64.3322 76.8346 65.9744 79.734C66.4856 80.6363 67.6129 80.9818 68.5418 80.5211C69.049 80.2695 69.5934 80.0818 70.1522 79.965C73.7359 79.2315 77.2518 81.5492 77.9895 85.1338C78.3473 86.8695 78.0078 88.6414 77.0334 90.1223Z" fill="#9C9C9C"/>
<path d="M93.2107 82.4095C89.4641 82.4095 86.416 85.4564 86.416 89.2013C86.416 92.9494 89.4641 95.9986 93.2107 95.9986C96.9543 95.9986 99.9998 92.9494 99.9998 89.2013C99.9998 85.4564 96.9543 82.4095 93.2107 82.4095ZM93.2107 92.0924C91.618 92.0924 90.3223 90.7955 90.3223 89.2013C90.3223 87.6103 91.618 86.3158 93.2107 86.3158C94.8004 86.3158 96.0936 87.6101 96.0936 89.2013C96.0936 90.7955 94.8002 92.0924 93.2107 92.0924Z" fill="#9C9C9C"/>
<path d="M92.7294 61.6365C92.7294 56.9362 88.9069 53.1119 84.2083 53.1119C79.5128 53.1119 75.6929 56.9362 75.6929 61.6365C75.6929 66.3369 79.513 70.1612 84.2083 70.1612C88.9069 70.1612 92.7294 66.3369 92.7294 61.6365ZM84.2083 66.2549C81.6667 66.2549 79.5991 64.1832 79.5991 61.6365C79.5991 59.0899 81.6667 57.0182 84.2083 57.0182C86.7528 57.0182 88.8231 59.0899 88.8231 61.6365C88.8231 64.1832 86.753 66.2549 84.2083 66.2549Z" fill="#9C9C9C"/>
<path d="M64.8439 29.4712C65.3453 29.4712 65.847 29.2798 66.2291 28.8978C66.9918 28.1351 66.9918 26.8984 66.2291 26.1355C65.4664 25.3728 64.2296 25.3728 63.4667 26.1355L63.4613 26.141C62.6986 26.9037 62.7013 28.1377 63.464 28.9003C63.8449 29.2812 64.3441 29.4712 64.8439 29.4712Z" fill="#9C9C9C"/>
</g>
<defs>
<clipPath id="clip0">
<rect width="100" height="100" fill="white"/>
</clipPath>
</defs>
</svg>
