<svg width="118" height="118" viewBox="0 0 118 118" fill="none" xmlns="http://www.w3.org/2000/svg">
<g clip-path="url(#clip0)">
<path d="M90.6824 75.7643C89.9147 75.7643 89.1563 75.5233 88.5082 75.0527C87.455 74.2878 86.8874 73.0562 86.9904 71.7582L87.6364 63.5653L82.2975 57.3158C81.4524 56.3279 81.1876 54.9983 81.5893 53.7605C81.9912 52.5227 82.9866 51.6022 84.2523 51.2985L92.2458 49.381L96.5384 42.372C97.2199 41.2616 98.4024 40.6 99.7029 40.6C99.7036 40.6 99.7041 40.6 99.7047 40.6C101.006 40.6007 102.188 41.2632 102.867 42.3722L107.159 49.381L115.153 51.2983C116.419 51.602 117.414 52.5227 117.816 53.7607C118.218 54.9983 117.952 56.3279 117.107 57.317L111.769 63.5653L112.415 71.7591C112.518 73.0559 111.95 74.2875 110.897 75.0527C109.844 75.8176 108.497 75.9766 107.295 75.4776L99.7027 72.3316L92.1089 75.4781C91.6466 75.6696 91.1627 75.7643 90.6824 75.7643ZM107.82 72.1223H107.822H107.82ZM99.7024 67.5322C100.002 67.5322 100.302 67.5908 100.585 67.7078L107.705 70.658L107.099 62.9758C107.051 62.3662 107.247 61.7626 107.644 61.2978L112.65 55.4383L105.156 53.6407C104.561 53.498 104.047 53.1247 103.728 52.6031L99.7029 46.0308L95.6779 52.6031C95.3585 53.1247 94.8448 53.498 94.2502 53.6407L86.756 55.4383L91.7616 61.2978C92.1587 61.7626 92.3549 62.3664 92.3069 62.9758L91.701 70.658L98.8209 67.7078C99.1028 67.5908 99.4026 67.5322 99.7024 67.5322Z" fill="#9C9C9C"/>
<path d="M9.27699 75.7643C8.50932 75.7643 7.75064 75.5233 7.10281 75.0527C6.0496 74.2875 5.48197 73.0559 5.58498 71.7582L6.2312 63.5653L0.892318 57.3158C0.0472134 56.3279 -0.217818 54.9983 0.184108 53.7607C0.586034 52.5227 1.5814 51.6022 2.8471 51.2985L10.8407 49.381L15.1333 42.372C15.8147 41.2616 16.9972 40.6 18.2977 40.6C18.2984 40.6 18.2989 40.6 18.2996 40.6C19.6005 40.6007 20.7823 41.2632 21.4615 42.3722L25.7541 49.381L33.7474 51.2983C35.0134 51.602 36.009 52.5227 36.4107 53.7607C36.8126 54.9986 36.5473 56.3281 35.7015 57.317L30.3638 63.5653L31.01 71.7591C31.1128 73.0562 30.5452 74.2878 29.492 75.0527C28.4385 75.8178 27.0919 75.9764 25.8901 75.4774L18.2977 72.3316L10.704 75.4781C10.2412 75.6696 9.75727 75.7643 9.27699 75.7643ZM26.4146 72.1223H26.4169H26.4146ZM5.35037 55.438L10.356 61.2975C10.7531 61.7626 10.9492 62.3662 10.9013 62.9755L10.2954 70.6578L17.4155 67.7076C17.9804 67.4735 18.6151 67.4735 19.1797 67.7076L26.2996 70.6578L25.6937 62.9755C25.6458 62.366 25.8419 61.7621 26.239 61.2975L31.2446 55.438L23.7505 53.6404C23.1556 53.4978 22.6422 53.1244 22.3227 52.6029L18.2977 46.0306L14.2727 52.6029C13.9533 53.1244 13.4396 53.4978 12.845 53.6404L5.35037 55.438ZM32.1985 54.321C32.198 54.3217 32.1976 54.3221 32.1971 54.3228L32.1976 54.3221C32.1978 54.3217 32.1983 54.3215 32.1985 54.321Z" fill="#9C9C9C"/>
<path d="M90.3907 35.0742C89.8622 33.4453 88.5521 32.2338 86.8861 31.8335L71.4522 28.1316L63.1637 14.5979C62.2702 13.1386 60.7148 12.267 59.0031 12.2661H59.0004C57.2887 12.2661 55.7322 13.1368 54.8357 14.5977L46.5471 28.1316L31.1126 31.8337C29.4473 32.2336 28.1374 33.4451 27.6087 35.0742C27.0802 36.7027 27.4289 38.4519 28.5409 39.7522L38.8492 51.8189L37.6018 67.6392C37.4665 69.3467 38.2132 70.9671 39.5992 71.974C40.4516 72.5935 41.45 72.9106 42.4601 72.9106C43.0923 72.9106 43.7293 72.7864 44.3377 72.5338L59.8821 66.0924C61.0582 65.6052 61.6163 64.257 61.1292 63.0811C60.642 61.9053 59.2938 61.3471 58.1179 61.8343L49.9128 65.2339V56.3629C49.9128 55.6354 50.5081 55.0401 51.2357 55.0401H66.7665C67.4959 55.0401 68.087 55.6312 68.087 56.3606V68.6344C68.0868 68.6496 68.0873 68.6816 68.0882 68.7268C68.1094 69.6585 68.6858 70.4914 69.5537 70.8309C69.5553 70.8316 69.5569 70.832 69.5583 70.8327L73.661 72.5335C75.2426 73.1899 77.0144 72.9806 78.4004 71.974C79.7864 70.9673 80.5329 69.3469 80.3979 67.6401L79.1501 51.8192L89.4575 39.7533C90.5702 38.4519 90.9191 36.7027 90.3907 35.0742ZM52.0609 43.4914C52.0609 39.6653 55.1736 36.5527 58.9997 36.5527C62.8258 36.5527 65.9384 39.6655 65.9384 43.4914C65.9384 47.3175 62.8258 50.4302 58.9997 50.4302C55.1736 50.4304 52.0609 47.3175 52.0609 43.4914ZM85.9536 36.7585L75.0251 49.5514C74.628 50.0165 74.4319 50.6201 74.4798 51.2294L75.8027 68.0034C75.8059 68.0448 75.8147 68.155 75.6914 68.2446C75.5678 68.3345 75.466 68.2926 75.4266 68.2758L72.6958 67.1437V56.3627C72.6958 53.5529 70.733 51.1932 68.1071 50.5837C69.6357 48.625 70.5474 46.1629 70.5474 43.4916C70.5474 37.124 65.3671 31.9437 58.9995 31.9437C52.632 31.9437 47.4515 37.1242 47.4515 43.4916C47.4515 46.1629 48.3632 48.6252 49.8918 50.5837C47.2659 51.1932 45.3031 53.5529 45.3031 56.3627V67.1437L42.5712 68.2762C42.5329 68.2919 42.4311 68.3345 42.3073 68.2446C42.184 68.155 42.1928 68.0448 42.1962 68.0024L43.5191 51.2294C43.567 50.6198 43.3709 50.0163 42.9738 49.5514L32.0444 36.7575C32.0174 36.7257 31.9455 36.6416 31.9923 36.4971C32.0396 36.3515 32.1479 36.3254 32.188 36.316L48.5508 32.3912C49.1456 32.2486 49.6591 31.8752 49.9785 31.3537L58.7648 17.0072C58.787 16.9712 58.8455 16.8756 59.0001 16.8756H59.0004C59.1534 16.8756 59.211 16.9696 59.2327 17.0053L68.0202 31.3539C68.3396 31.8754 68.8533 32.2488 69.4479 32.3914L85.81 36.316C85.8508 36.3257 85.9591 36.3517 86.0064 36.4974C86.0534 36.6416 85.9815 36.7257 85.9536 36.7585Z" fill="#9C9C9C"/>
<path d="M99.7027 105.734H18.2973C17.0245 105.734 15.9927 104.702 15.9927 103.429V80.4965C15.9927 79.2239 17.0245 78.1919 18.2973 78.1919H63.5324C64.8052 78.1919 65.837 79.2239 65.837 80.4965C65.837 81.7691 64.8052 82.8011 63.5324 82.8011H20.6019V101.125H97.3983V82.8011H85.5032C84.2304 82.8011 83.1986 81.7691 83.1986 80.4965C83.1986 79.2239 84.2304 78.1919 85.5032 78.1919H99.7029C100.976 78.1919 102.008 79.2239 102.008 80.4965V103.429C102.007 104.702 100.976 105.734 99.7027 105.734Z" fill="#9C9C9C"/>
<path d="M74.9023 82.7999C74.2962 82.7999 73.7016 82.5556 73.2729 82.1269C73.1669 82.0209 73.0701 81.9013 72.9871 81.7766C72.9042 81.6496 72.8327 81.5162 72.7751 81.3779C72.7175 81.2396 72.6714 81.0946 72.6438 80.9469C72.6138 80.7973 72.5977 80.6473 72.5977 80.4975C72.5977 79.8891 72.8443 79.2945 73.2729 78.8683C73.3789 78.76 73.4965 78.6655 73.6232 78.5802C73.7477 78.4973 73.8814 78.4258 74.0196 78.3682C74.1602 78.3106 74.3054 78.2668 74.4529 78.2368C74.7502 78.1769 75.0545 78.1769 75.3518 78.2368C75.4993 78.2668 75.6445 78.3106 75.785 78.3682C75.9233 78.4258 76.057 78.4973 76.1814 78.5802C76.3082 78.6655 76.4257 78.76 76.5318 78.8683C76.9604 79.2947 77.207 79.8893 77.207 80.4975C77.207 80.6473 77.1909 80.7973 77.1609 80.9469C77.131 81.0946 77.0872 81.2398 77.0296 81.3779C76.9719 81.5164 76.9005 81.6498 76.8175 81.7766C76.7346 81.9011 76.6378 82.0209 76.5318 82.1269C76.1031 82.5556 75.5082 82.7999 74.9023 82.7999Z" fill="#9C9C9C"/>
<path d="M75.6703 90.5806H42.33C41.0572 90.5806 40.0254 89.5486 40.0254 88.2759C40.0254 87.0033 41.0572 85.9713 42.33 85.9713H75.6703C76.9431 85.9713 77.9749 87.0033 77.9749 88.2759C77.9749 89.5486 76.9431 90.5806 75.6703 90.5806Z" fill="#9C9C9C"/>
<path d="M68.5261 97.9546H49.4745C48.2017 97.9546 47.1699 96.9226 47.1699 95.6499C47.1699 94.3773 48.2017 93.3453 49.4745 93.3453H68.5261C69.799 93.3453 70.8308 94.3773 70.8308 95.6499C70.8308 96.9226 69.799 97.9546 68.5261 97.9546Z" fill="#9C9C9C"/>
</g>
<defs>
<clipPath id="clip0">
<rect width="118" height="118" fill="white"/>
</clipPath>
</defs>
</svg>
