<svg width="20" height="20" viewBox="0 0 20 20" fill="none" xmlns="http://www.w3.org/2000/svg">
<g clip-path="url(#clip0)">
<path d="M1.12422 8.43153L1.093 8.43836H14.4761L10.2689 4.22194C10.0629 4.01608 9.94991 3.73722 9.94991 3.44454C9.94991 3.15186 10.0629 2.87495 10.2689 2.6686L10.9236 2.01364C11.1294 1.80779 11.4037 1.69397 11.6963 1.69397C11.9889 1.69397 12.2634 1.80698 12.4693 2.01283L19.6811 9.22405C19.8878 9.43072 20.0008 9.706 20 9.99885C20.0008 10.2933 19.8878 10.5688 19.6811 10.7751L12.4693 17.987C12.2634 18.1927 11.9891 18.3058 11.6963 18.3058C11.4037 18.3058 11.1294 18.1925 10.9236 17.987L10.2689 17.332C10.0629 17.1265 9.94991 16.852 9.94991 16.5593C9.94991 16.2668 10.0629 16.0068 10.2689 15.8011L14.5236 11.5611H1.10926C0.5065 11.5611 -3.8147e-06 11.0416 -3.8147e-06 10.4392V9.51283C-3.8147e-06 8.91039 0.52146 8.43153 1.12422 8.43153Z" fill="white"/>
</g>
<defs>
<clipPath id="clip0">
<rect width="20" height="20" transform="matrix(-1 0 0 1 20 0)" fill="white"/>
</clipPath>
</defs>
</svg>
