<svg width="40" height="40" viewBox="0 0 40 40" fill="none" xmlns="http://www.w3.org/2000/svg">
<path fill-rule="evenodd" clip-rule="evenodd" d="M0 20C0 8.95431 8.95431 0 20 0C31.0457 0 40 8.95431 40 20C40 31.0457 31.0457 40 20 40C8.95431 40 0 31.0457 0 20Z" fill="#912DFF"/>
<mask id="mask0" mask-type="alpha" maskUnits="userSpaceOnUse" x="0" y="0" width="40" height="40">
<path fill-rule="evenodd" clip-rule="evenodd" d="M0 20C0 8.95431 8.95431 0 20 0C31.0457 0 40 8.95431 40 20C40 31.0457 31.0457 40 20 40C8.95431 40 0 31.0457 0 20Z" fill="white"/>
</mask>
<g mask="url(#mask0)">
<path fill-rule="evenodd" clip-rule="evenodd" d="M20.001 9.3335C17.1041 9.3335 16.7405 9.34616 15.6027 9.39794C14.4671 9.44994 13.692 9.62972 13.0138 9.8935C12.3122 10.1659 11.7171 10.5304 11.1242 11.1235C10.5309 11.7164 10.1664 12.3115 9.8931 13.0129C9.62865 13.6913 9.44865 14.4667 9.39754 15.6018C9.34665 16.7396 9.33331 17.1034 9.33331 20.0003C9.33331 22.8972 9.3462 23.2596 9.39776 24.3974C9.44998 25.533 9.62976 26.3081 9.89332 26.9863C10.166 27.6879 10.5304 28.283 11.1236 28.8759C11.7162 29.4693 12.3113 29.8346 13.0125 30.107C13.6911 30.3708 14.4665 30.5506 15.6018 30.6026C16.7396 30.6544 17.1029 30.667 19.9996 30.667C22.8968 30.667 23.2592 30.6544 24.397 30.6026C25.5326 30.5506 26.3086 30.3708 26.9873 30.107C27.6886 29.8346 28.2828 29.4693 28.8755 28.8759C29.4689 28.283 29.8333 27.6879 30.1066 26.9866C30.3689 26.3081 30.5489 25.5328 30.6022 24.3977C30.6533 23.2599 30.6666 22.8972 30.6666 20.0003C30.6666 17.1034 30.6533 16.7398 30.6022 15.602C30.5489 14.4664 30.3689 13.6913 30.1066 13.0131C29.8333 12.3115 29.4689 11.7164 28.8755 11.1235C28.2822 10.5302 27.6888 10.1657 26.9866 9.8935C26.3066 9.62972 25.531 9.44994 24.3955 9.39794C23.2577 9.34616 22.8955 9.3335 19.9976 9.3335H20.001ZM19.0441 11.2556C19.3281 11.2552 19.645 11.2556 20.001 11.2556C22.8491 11.2556 23.1866 11.2658 24.3113 11.3169C25.3513 11.3645 25.9158 11.5383 26.2918 11.6843C26.7896 11.8776 27.1445 12.1087 27.5176 12.4821C27.8909 12.8554 28.122 13.211 28.3158 13.7087C28.4618 14.0843 28.6358 14.6487 28.6831 15.6888C28.7342 16.8132 28.7454 17.151 28.7454 19.9977C28.7454 22.8444 28.7342 23.1822 28.6831 24.3066C28.6356 25.3466 28.4618 25.9111 28.3158 26.2866C28.1225 26.7844 27.8909 27.1389 27.5176 27.512C27.1442 27.8853 26.7898 28.1164 26.2918 28.3098C25.9162 28.4564 25.3513 28.6298 24.3113 28.6773C23.1869 28.7284 22.8491 28.7396 20.001 28.7396C17.1528 28.7396 16.8152 28.7284 15.6908 28.6773C14.6508 28.6293 14.0863 28.4556 13.7101 28.3096C13.2123 28.1162 12.8567 27.8851 12.4834 27.5118C12.1101 27.1384 11.879 26.7838 11.6852 26.2858C11.5392 25.9102 11.3652 25.3457 11.3178 24.3057C11.2667 23.1813 11.2565 22.8435 11.2565 19.995C11.2565 17.1465 11.2667 16.8105 11.3178 15.6861C11.3654 14.6461 11.5392 14.0816 11.6852 13.7056C11.8785 13.2078 12.1101 12.8523 12.4834 12.4789C12.8567 12.1056 13.2123 11.8745 13.7101 11.6807C14.0861 11.534 14.6508 11.3607 15.6908 11.3129C16.6748 11.2685 17.0561 11.2552 19.0441 11.2529V11.2556ZM25.6949 13.0266C24.9882 13.0266 24.4149 13.5993 24.4149 14.3062C24.4149 15.0129 24.9882 15.5862 25.6949 15.5862C26.4016 15.5862 26.9749 15.0129 26.9749 14.3062C26.9749 13.5995 26.4016 13.0262 25.6949 13.0262V13.0266ZM20.0011 14.5223C16.976 14.5223 14.5233 16.975 14.5233 20.0001C14.5233 23.0252 16.976 25.4768 20.0011 25.4768C23.0263 25.4768 25.4781 23.0252 25.4781 20.0001C25.4781 16.975 23.0261 14.5223 20.0009 14.5223H20.0011ZM20.0011 16.4445C21.9646 16.4445 23.5567 18.0363 23.5567 20.0001C23.5567 21.9637 21.9646 23.5557 20.0011 23.5557C18.0373 23.5557 16.4455 21.9637 16.4455 20.0001C16.4455 18.0363 18.0373 16.4445 20.0011 16.4445Z" fill="white"/>
</g>
</svg>
