<svg width="100" height="100" viewBox="0 0 100 100" fill="none" xmlns="http://www.w3.org/2000/svg">
<path d="M95.7975 94.1137L85.1807 34.881C84.7534 32.4964 82.6787 30.7606 80.2558 30.7606H62.5989C65.9095 27.4998 67.9669 22.9697 67.9669 17.9667C67.9669 8.05973 59.9071 0 50.0002 0C40.0932 0 32.0331 8.05973 32.0331 17.9667C32.0331 22.9697 34.0905 27.4998 37.4011 30.7606H19.7442C17.3213 30.7606 15.2469 32.4964 14.8193 34.881L4.20249 94.1137C3.94131 95.572 4.33925 97.071 5.29022 98.2071C6.24085 99.3432 7.64613 99.9997 9.12745 99.9997H90.8725C92.3539 99.9997 93.7591 99.3432 94.7098 98.2071C95.6604 97.071 96.0587 95.572 95.7975 94.1137ZM50.0002 10.0067C54.3894 10.0067 57.9602 13.5774 57.9602 17.9667C57.9602 22.356 54.3894 25.927 50.0002 25.927C45.6109 25.927 42.0398 22.356 42.0398 17.9667C42.0398 13.5774 45.6109 10.0067 50.0002 10.0067ZM48.6926 77.4272C48.4321 77.9075 47.9291 78.2067 47.3827 78.2067H45.0225C44.4935 78.2067 44.0038 77.9262 43.7363 77.4696L37.8951 67.4979L34.1596 71.3111V75.9032C34.1596 77.1754 33.1282 78.2067 31.856 78.2067C30.5838 78.2067 29.5525 77.1754 29.5525 75.9032V57.692C29.5525 56.4198 30.5838 55.3884 31.856 55.3884C33.1282 55.3884 34.1596 56.4198 34.1596 57.692V65.5209L43.0252 55.8704C43.3074 55.5632 43.7056 55.3884 44.1226 55.3884H46.1483C46.7467 55.3884 47.2867 55.746 47.5205 56.2967C47.754 56.8474 47.6356 57.4845 47.22 57.9145L41.0705 64.2754L48.6322 75.9035C48.9301 76.3622 48.9535 76.9466 48.6926 77.4272ZM71.3888 74.3885C71.3888 74.8415 71.182 75.2718 70.8281 75.5543C69.9088 76.2878 68.6977 76.9462 67.1947 77.5293C65.3628 78.2401 63.5079 78.5953 61.63 78.5953C59.243 78.5953 57.1633 78.095 55.3881 77.0933C53.6143 76.0923 52.2804 74.6604 51.3881 72.7974C50.4955 70.9349 50.0495 68.9092 50.0495 66.7194C50.0495 64.3434 50.5475 62.2314 51.5439 60.3848C52.5399 58.5376 53.9978 57.1216 55.9178 56.1353C57.3801 55.3781 59.2017 54.9988 61.3808 54.9988C64.2137 54.9988 66.4262 55.5932 68.0192 56.7814C68.7094 57.2961 69.2928 57.8961 69.7694 58.5812C70.225 59.236 70.3174 60.0769 70.0152 60.8147C69.713 61.5529 69.0576 62.0883 68.2734 62.235L68.2681 62.236C67.3495 62.4078 66.4182 62.0009 65.9208 61.2097C65.6026 60.7033 65.1967 60.27 64.704 59.9095C63.8164 59.261 62.7087 58.9368 61.3808 58.9368C59.3674 58.9368 57.7667 59.5752 56.5792 60.8511C55.3911 62.128 54.797 64.0216 54.797 66.5326C54.797 69.2411 55.3984 71.2721 56.6026 72.6263C57.8061 73.9802 59.3831 74.6573 61.3344 74.6573C62.2991 74.6573 63.2667 74.4682 64.237 74.0893C65.2067 73.7104 66.0396 73.2511 66.735 72.7121V69.8164H63.3811C62.3194 69.8164 61.4592 68.9559 61.4592 67.8945C61.4592 66.8328 62.3198 65.9725 63.3811 65.9725H69.8985C70.7217 65.9725 71.3888 66.64 71.3888 67.4629V74.3885Z" fill="#C4C4C4"/>
<rect x="27" y="50" width="52" height="35" fill="#C4C4C4"/>
<path d="M44.3959 77H55.6999V74.336H47.6599C47.8039 71.12 55.4359 70.184 55.4359 64.712C55.4359 61.496 52.8679 59.672 49.8919 59.672C47.1559 59.672 45.2359 61.256 44.2519 63.08L46.5559 64.616C47.1799 63.512 48.3319 62.6 49.6279 62.6C51.0679 62.6 52.2199 63.488 52.2199 64.976C52.2199 68.36 44.2519 69.344 44.2519 75.488C44.2519 75.968 44.2999 76.448 44.3959 77Z" fill="white"/>
</svg>
