<svg width="40" height="40" viewBox="0 0 40 40" fill="none" xmlns="http://www.w3.org/2000/svg">
<path fill-rule="evenodd" clip-rule="evenodd" d="M20 40C31.0457 40 40 31.0457 40 20C40 8.95431 31.0457 0 20 0C8.95431 0 0 8.95431 0 20C0 31.0457 8.95431 40 20 40Z" fill="white"/>
<path fill-rule="evenodd" clip-rule="evenodd" d="M31.9824 20.0966C31.9824 24.199 28.663 27.5247 24.5683 27.5247C20.4736 27.5247 17.1542 24.199 17.1542 20.0966C17.1542 15.9941 20.4736 12.6685 24.5683 12.6685C28.663 12.6685 31.9824 15.9941 31.9824 20.0966Z" fill="#F79F1A"/>
<path fill-rule="evenodd" clip-rule="evenodd" d="M22.836 20.0966C22.836 24.199 19.5166 27.5247 15.422 27.5247C11.3273 27.5247 8.00787 24.199 8.00787 20.0966C8.00787 15.9941 11.3273 12.6685 15.422 12.6685C19.5166 12.6685 22.836 15.9941 22.836 20.0966Z" fill="#EA001B"/>
<path fill-rule="evenodd" clip-rule="evenodd" d="M19.9952 14.249C18.2653 15.6089 17.1548 17.722 17.1548 20.0958C17.1548 22.4696 18.2653 24.5843 19.9952 25.9442C21.7251 24.5843 22.8355 22.4696 22.8355 20.0958C22.8355 17.722 21.7251 15.6089 19.9952 14.249Z" fill="#FF5F01"/>
</svg>
