<svg width="24" height="24" viewBox="0 0 24 24" fill="none" xmlns="http://www.w3.org/2000/svg">
<path d="M23.25 7.49999H0.750044C0.336027 7.49999 6.29425e-05 7.16397 6.29425e-05 6.75001C6.29425e-05 6.336 0.336088 6.00003 0.750044 6.00003H23.25C23.664 6.00003 24 6.33606 24 6.75001C24 7.16397 23.664 7.49999 23.25 7.49999Z" fill="black"/>
<path d="M0.750044 11.25H23.25C23.664 11.25 24 11.586 24 12C24 12.414 23.664 12.75 23.25 12.75H0.750044C0.336027 12.75 6.29425e-05 12.414 6.29425e-05 12C6.29425e-05 11.586 0.336027 11.25 0.750044 11.25Z" fill="black"/>
<path d="M0.750044 16.5H15.75C16.164 16.5 16.5 16.836 16.5 17.25C16.5 17.664 16.164 18 15.75 18H0.750044C0.336027 18 6.29425e-05 17.6639 6.29425e-05 17.25C0 16.836 0.336027 16.5 0.750044 16.5Z" fill="black"/>
</svg>
