<svg width="286" height="286" viewBox="0 0 286 286" fill="none" xmlns="http://www.w3.org/2000/svg">
<path fill-rule="evenodd" clip-rule="evenodd" d="M47.6667 35.75H89.375C95.9292 35.75 101.292 41.1125 101.292 47.6667C101.292 62.5625 103.675 76.8625 108.084 90.2092C109.395 94.38 108.442 99.0275 105.105 102.364L78.8883 128.581C96.0483 162.305 123.695 189.833 157.419 207.112L183.636 180.895C186.019 178.631 188.998 177.439 192.097 177.439C193.288 177.439 194.599 177.558 195.791 178.035C209.138 182.444 223.557 184.827 238.333 184.827C244.888 184.827 250.25 190.19 250.25 196.744V238.333C250.25 244.888 244.888 250.25 238.333 250.25C126.436 250.25 35.75 159.564 35.75 47.6667C35.75 41.1125 41.1125 35.75 47.6667 35.75ZM77.938 59.5833C78.653 70.1892 80.4405 80.5567 83.3005 90.4475L69.0005 104.748C64.1147 90.4475 61.0163 75.3133 59.9438 59.5833H77.938ZM195.435 202.822C205.564 205.682 215.932 207.469 226.419 208.184V225.94C210.689 224.868 195.554 221.769 181.135 217.003L195.435 202.822Z" fill="#912DFF"/>
</svg>
