<svg width="30" height="30" viewBox="0 0 30 30" fill="none" xmlns="http://www.w3.org/2000/svg">
<circle cx="15" cy="15" r="15" fill="#B5E42F"/>
<g clip-path="url(#clip0)">
<path d="M19.0996 12.786H18.8409V10.8997C18.841 8.78185 17.1179 7.05884 14.9998 7.05884C12.8818 7.05884 11.1586 8.78185 11.1586 10.8997V12.786H10.8998C10.1452 12.786 9.53125 13.3999 9.53125 14.1545V21.5726C9.53125 22.3272 10.1452 22.9411 10.8998 22.9411H19.0996C19.8542 22.9411 20.4682 22.3272 20.4682 21.5726V14.1545C20.4682 13.3999 19.8543 12.786 19.0996 12.786ZM12.3316 10.8997C12.3316 9.42865 13.5286 8.23186 14.9998 8.23186C16.471 8.23186 17.6679 9.42865 17.6679 10.8997V12.786H12.3316V10.8997ZM19.2951 21.5727C19.2951 21.6786 19.2056 21.7682 19.0996 21.7682H10.8998C10.7938 21.7682 10.7043 21.6786 10.7043 21.5727V14.1545C10.7043 14.0485 10.7938 13.959 10.8998 13.959H11.7451H18.2544H19.0996C19.2056 13.959 19.2951 14.0485 19.2951 14.1545V21.5727Z" fill="white"/>
<path d="M14.9996 16.1543C14.6757 16.1543 14.4131 16.4168 14.4131 16.7408V18.9864C14.4131 19.3103 14.6757 19.5729 14.9996 19.5729C15.3235 19.5729 15.5861 19.3103 15.5861 18.9864V16.7408C15.5861 16.4168 15.3235 16.1543 14.9996 16.1543Z" fill="white"/>
</g>
<defs>
<clipPath id="clip0">
<rect x="7.05859" y="7.05884" width="15.8824" height="15.8824" fill="white"/>
</clipPath>
</defs>
</svg>
