<svg width="36" height="50" viewBox="0 0 36 50" fill="none" xmlns="http://www.w3.org/2000/svg">
<path d="M17.9999 0C8.29238 0 0.39502 8.02148 0.39502 17.8808V32.1197C0.39502 41.979 8.29238 50 17.9999 50C27.7068 50 35.6048 42.0033 35.6048 32.1744V17.8808C35.6048 8.02148 27.7068 0 17.9999 0ZM32.2935 32.1744C32.2935 40.1777 25.8817 46.6888 17.9999 46.6888C10.1186 46.6888 3.70635 40.1529 3.70635 32.1192V17.8808C3.70635 9.84707 10.1186 3.31123 17.9999 3.31123C25.8818 3.31123 32.2935 9.84707 32.2935 17.8808V32.1744Z" fill="#383838"/>
<path d="M18.0004 13.6865C17.0859 13.6865 16.3447 14.4277 16.3447 15.3422V21.1369C16.3447 22.0514 17.0859 22.7926 18.0004 22.7926C18.9148 22.7926 19.6561 22.0514 19.6561 21.1369V15.3422C19.6561 14.4277 18.9148 13.6865 18.0004 13.6865Z" fill="#383838"/>
</svg>
