<svg width="18" height="18" viewBox="0 0 18 18" fill="none" xmlns="http://www.w3.org/2000/svg">
<path d="M17.8441 17.082L13.4698 12.7078C14.6432 11.3588 15.3536 9.59867 15.3536 7.67494C15.3536 3.44035 11.9093 0 7.67867 0C3.44408 0 0.00372314 3.44435 0.00372314 7.67494C0.00372314 11.9055 3.44807 15.3499 7.67867 15.3499C9.60239 15.3499 11.3625 14.6395 12.7115 13.4661L17.0858 17.8404C17.1895 17.9441 17.3292 18 17.4649 18C17.6006 18 17.7403 17.9481 17.8441 17.8404C18.0516 17.6328 18.0516 17.2896 17.8441 17.082ZM1.07734 7.67494C1.07734 4.03503 4.03876 1.07761 7.67468 1.07761C11.3146 1.07761 14.272 4.03902 14.272 7.67494C14.272 11.3109 11.3146 14.2763 7.67468 14.2763C4.03876 14.2763 1.07734 11.3149 1.07734 7.67494Z" fill="#D8D8D8"/>
</svg>
