<svg width="40" height="40" viewBox="0 0 40 40" fill="none" xmlns="http://www.w3.org/2000/svg">
<path fill-rule="evenodd" clip-rule="evenodd" d="M20 0C31.0457 0 40 8.9543 40 20C40 31.0457 31.0457 40 20 40C8.95431 40 0 31.0457 0 20C0 8.9543 8.95431 0 20 0Z" fill="#7F4DA0"/>
<path fill-rule="evenodd" clip-rule="evenodd" d="M25.3284 17.4654C25.2311 16.6751 24.9883 16.0546 24.5569 15.505C23.9968 14.7973 23.281 14.3735 22.2213 14.1221C21.5306 13.9545 21.2516 13.9737 21.0018 14.2019C20.7692 14.4157 20.7237 14.8442 20.9015 15.1217C21.0266 15.3231 21.1708 15.3953 21.572 15.474C22.1063 15.5723 22.4755 15.6999 22.8113 15.8919C23.5242 16.3036 23.8562 16.9477 23.8917 17.9905C23.9083 18.4801 23.9506 18.6306 24.1216 18.8043C24.4386 19.1217 25.0027 19.06 25.242 18.6801C25.3298 18.5369 25.3432 18.4746 25.3524 18.1421C25.3586 17.9363 25.3497 17.6299 25.3284 17.4654Z" fill="white"/>
<path fill-rule="evenodd" clip-rule="evenodd" d="M28.1205 18.3563C27.9797 15.9352 27.0327 13.9873 25.3379 12.6168C24.383 11.8467 23.2288 11.3171 21.9636 11.0596C21.5001 10.9675 20.6468 10.8929 20.5004 10.9356C20.3623 10.9751 20.1669 11.1247 20.0798 11.2599C19.9877 11.4066 19.9669 11.7341 20.0455 11.9236C20.1723 12.2403 20.4082 12.3521 21.0688 12.4099C22.0872 12.499 23.1377 12.8568 23.9313 13.3865C24.8374 13.9897 25.5577 14.8146 26.0237 15.7839C26.4263 16.6168 26.6739 17.817 26.6671 18.8919C26.6648 19.2806 26.7248 19.5001 26.8811 19.6606C27.1171 19.9074 27.4611 19.9614 27.7646 19.7975C28.1011 19.6205 28.1798 19.31 28.1205 18.3563Z" fill="white"/>
<path fill-rule="evenodd" clip-rule="evenodd" d="M31.2102 27.6802C31.1629 27.5418 31.0524 27.3284 30.9734 27.2058C30.476 26.4548 27.8038 24.3635 26.4696 23.6795C25.7078 23.2882 25.1434 23.1578 24.7249 23.2803C24.275 23.4068 24.0381 23.6163 23.2842 24.5532C22.9803 24.9288 22.6684 25.2806 22.5855 25.3359C22.3803 25.4783 21.9777 25.593 21.6935 25.593C21.0343 25.5889 19.8383 25.162 18.9185 24.6006C18.2041 24.1658 17.2884 23.3871 16.5857 22.6162C15.7568 21.7109 15.1924 20.9123 14.7463 20.011C14.17 18.8527 14.024 18.1451 14.2647 17.6272C14.324 17.4967 14.4029 17.3584 14.4384 17.3149C14.474 17.2754 14.845 16.9709 15.2555 16.6389C16.0608 15.9985 16.191 15.8522 16.341 15.4134C16.5305 14.856 16.4792 14.2867 16.1871 13.7135C15.9621 13.2786 15.3739 12.3299 14.9476 11.7171C14.3832 10.9107 12.978 9.18711 12.6977 8.95381C12.1924 8.54271 11.5451 8.47151 10.8306 8.74829C10.0768 9.04084 8.66361 10.1794 8.05967 10.974C7.51495 11.6934 7.30581 12.2034 7.2742 12.8754C7.24659 13.4289 7.29394 13.6581 7.58604 14.3658C9.87149 19.9161 13.2819 24.3476 17.9673 27.866C20.4146 29.7043 22.9526 31.1037 25.5854 32.0604C27.1209 32.6178 27.788 32.6455 28.5735 32.1869C28.905 31.9892 29.7261 31.1472 30.1839 30.5345C30.9418 29.5145 31.2221 29.0441 31.301 28.6685C31.3563 28.4116 31.3129 27.9649 31.2102 27.6802Z" fill="white"/>
<path fill-rule="evenodd" clip-rule="evenodd" d="M30.9629 18.9125C30.9124 17.543 30.6818 16.4196 30.201 15.1672C29.7263 13.9352 29.2458 13.1312 28.3385 12.0439C27.4807 11.0244 26.8145 10.4423 25.7578 9.79427C24.2835 8.89144 22.4894 8.29398 20.4787 8.04272C19.793 7.9549 19.6379 7.96117 19.4275 8.10154C19.0198 8.36744 19.0253 9.03067 19.4342 9.29259C19.5696 9.37591 19.6897 9.40626 20.2382 9.47805C21.0802 9.59141 21.6216 9.69824 22.264 9.87352C24.7832 10.5622 26.7204 11.9698 28.0156 14.0593C29.0994 15.801 29.5494 17.5428 29.4855 19.7673C29.4633 20.5194 29.4794 20.6518 29.5944 20.8324C29.8145 21.1692 30.3951 21.2358 30.6929 20.9564C30.8783 20.7861 30.9132 20.6582 30.9497 20.0145C30.9672 19.6787 30.9709 19.1831 30.9629 18.9125Z" fill="white"/>
</svg>
