<svg width="40" height="40" viewBox="0 0 40 40" fill="none" xmlns="http://www.w3.org/2000/svg">
<path fill-rule="evenodd" clip-rule="evenodd" d="M0 20C0 8.95431 8.95431 0 20 0C31.0457 0 40 8.95431 40 20C40 31.0457 31.0457 40 20 40C8.95431 40 0 31.0457 0 20Z" fill="#4C6C91"/>
<path fill-rule="evenodd" clip-rule="evenodd" d="M21.0462 26.5632C21.0462 26.5632 21.4312 26.5212 21.6284 26.3133C21.8089 26.1228 21.8027 25.7633 21.8027 25.7633C21.8027 25.7633 21.7787 24.0846 22.5727 23.8368C23.3553 23.593 24.3601 25.4602 25.4265 26.1781C26.232 26.721 26.8434 26.6022 26.8434 26.6022L29.693 26.5632C29.693 26.5632 31.183 26.4731 30.4766 25.3229C30.4181 25.2287 30.0644 24.4718 28.3584 22.917C26.5711 21.2896 26.8111 21.5528 28.9626 18.7372C30.2731 17.0227 30.7969 15.976 30.6331 15.5284C30.4776 15.1003 29.5135 15.2139 29.5135 15.2139L26.306 15.2334C26.306 15.2334 26.0681 15.2017 25.8918 15.3051C25.7197 15.4065 25.608 15.6431 25.608 15.6431C25.608 15.6431 25.1009 16.9694 24.4237 18.0981C22.9953 20.4784 22.4245 20.6044 22.1908 20.4569C21.6472 20.1117 21.7828 19.0722 21.7828 18.3337C21.7828 16.0261 22.1397 15.0644 21.089 14.8155C20.7405 14.7326 20.4838 14.6783 19.5917 14.6691C18.4471 14.6578 17.4788 14.6732 16.9299 14.9364C16.5647 15.1115 16.283 15.5028 16.4552 15.5253C16.667 15.553 17.147 15.6523 17.4016 15.9923C17.7302 16.4317 17.7188 17.417 17.7188 17.417C17.7188 17.417 17.9076 20.1332 17.2774 20.4702C16.8454 20.7017 16.2528 20.2295 14.9787 18.0694C14.3266 16.9633 13.8341 15.7404 13.8341 15.7404C13.8341 15.7404 13.7392 15.512 13.5691 15.3891C13.3635 15.2406 13.0766 15.1945 13.0766 15.1945L10.0288 15.2139C10.0288 15.2139 9.57073 15.2262 9.40274 15.4219C9.25353 15.595 9.39126 15.9545 9.39126 15.9545C9.39126 15.9545 11.7776 21.435 14.48 24.1973C16.9581 26.7292 19.7711 26.5632 19.7711 26.5632H21.0462Z" fill="white"/>
</svg>
