<svg width="40" height="40" viewBox="0 0 40 40" fill="none" xmlns="http://www.w3.org/2000/svg">
<path fill-rule="evenodd" clip-rule="evenodd" d="M20 40C31.0457 40 40 31.0457 40 20C40 8.95431 31.0457 0 20 0C8.95431 0 0 8.95431 0 20C0 31.0457 8.95431 40 20 40Z" fill="#25D366"/>
<path fill-rule="evenodd" clip-rule="evenodd" d="M20.6592 31.127H20.6543C18.6639 31.1263 16.7082 30.6269 14.9711 29.6795L8.66669 31.3333L10.3539 25.1706C9.31313 23.367 8.7655 21.3212 8.7664 19.2251C8.769 12.668 14.104 7.33325 20.6591 7.33325C23.8406 7.33463 26.8265 8.57314 29.0719 10.8211C31.3172 13.0689 32.5531 16.0569 32.5518 19.2345C32.5492 25.7901 27.2163 31.1243 20.6592 31.127ZM15.2633 27.5265L15.6242 27.7407C17.1419 28.6413 18.8816 29.1179 20.6553 29.1185H20.6593C26.1074 29.1185 30.5417 24.6842 30.5438 19.2338C30.5449 16.5926 29.5177 14.1092 27.6515 12.2408C25.7852 10.3723 23.3034 9.34288 20.6632 9.34196C15.2108 9.34196 10.7765 13.7759 10.7744 19.2258C10.7736 21.0936 11.2962 22.9125 12.2857 24.4863L12.5207 24.8603L11.5221 28.5079L15.2633 27.5265ZM26.6507 22.0626C26.5764 21.9386 26.3783 21.8642 26.0812 21.7154C25.784 21.5667 24.3231 20.8479 24.0506 20.7487C23.7783 20.6495 23.5801 20.6 23.3821 20.8974C23.184 21.1948 22.6145 21.8642 22.4412 22.0626C22.2678 22.2608 22.0945 22.2857 21.7974 22.1369C21.5003 21.9882 20.5428 21.6744 19.4077 20.662C18.5243 19.874 17.928 18.901 17.7546 18.6035C17.5813 18.306 17.7362 18.1452 17.8849 17.997C18.0186 17.8639 18.1821 17.6499 18.3307 17.4764C18.4792 17.303 18.5287 17.1789 18.6278 16.9807C18.7268 16.7823 18.6773 16.6089 18.603 16.4601C18.5287 16.3114 17.9345 14.8487 17.6868 14.2537C17.4456 13.6743 17.2007 13.7528 17.0183 13.7436C16.8451 13.7349 16.6468 13.7331 16.4487 13.7331C16.2506 13.7331 15.9287 13.8074 15.6563 14.1049C15.3839 14.4024 14.6163 15.1214 14.6163 16.5839C14.6163 18.0466 15.6811 19.4596 15.8297 19.6579C15.9782 19.8563 17.925 22.8577 20.906 24.1448C21.6149 24.451 22.1684 24.6339 22.6 24.7708C23.3118 24.997 23.9597 24.9651 24.4716 24.8886C25.0426 24.8033 26.2297 24.1698 26.4774 23.4757C26.7249 22.7814 26.7249 22.1865 26.6507 22.0626Z" fill="#FDFDFD"/>
</svg>
